<svg xmlns="http://www.w3.org/2000/svg" width="27" height="36" viewBox="0 0 27 36">
    <defs>
        <linearGradient id="9x8jd3e1ea" x1=".5" x2=".5" y2="1" gradientUnits="objectBoundingBox">
            <stop offset="0" stop-color="#65affa"/>
            <stop offset="1" stop-color="#0e81ff"/>
        </linearGradient>
    </defs>
    <g>
        <g fill="url(#9x8jd3e1ea)" stroke="rgba(0,0,0,0.1)" stroke-width="0.5px" transform="translate(-655 -841) translate(655 841)">
            <path stroke="none" d="M0 0h21a6 6 0 0 1 6 6v24a6 6 0 0 1-6 6H0V0z"/>
            <path fill="none" d="M.5.25H21A5.75 5.75 0 0 1 26.75 6v24A5.75 5.75 0 0 1 21 35.75H.5a.25.25 0 0 1-.25-.25V.5A.25.25 0 0 1 .5.25z"/>
        </g>
        <path fill="none" stroke="#fff" stroke-linecap="round" stroke-linejoin="round" stroke-width="1.3px" d="M8.46 10.023l-4.23 5.018L0 10.023m8.46-5.006L4.23 0 0 5.017" transform="translate(-655 -841) translate(664.037 851.152)"/>
    </g>
</svg>
