<svg width="44" height="44" viewBox="0 0 44 44" fill="none" xmlns="http://www.w3.org/2000/svg">
<path fill-rule="evenodd" clip-rule="evenodd" d="M16.7152 21.0095C11.8571 21.0201 7.95041 21.0448 7.75343 21.083C6.72106 21.283 5.75406 22.0275 5.27257 22.9928L5 23.5394V27.5441V31.5488L5.2312 32.0137C5.58759 32.7303 6.17976 33.3156 6.9081 33.6709L7.53124 33.9749L21.8283 33.996C34.6869 34.015 36.1703 34.0042 36.5728 33.8887C37.481 33.6281 38.3248 32.9053 38.7736 32.0036L39 31.5488V27.5441V23.5394L38.7274 22.9928C38.231 21.9977 37.2824 21.2839 36.1824 21.078C35.9799 21.0401 32.11 21.0169 27.2867 21.0078C26.6289 21.5874 25.8751 22.0607 25.0522 22.4006L36.0506 22.4107L36.4202 22.5795C36.8798 22.7895 37.2989 23.1961 37.4949 23.6219C37.6326 23.9211 37.6446 24.232 37.6446 27.5054C37.6446 30.9121 37.6375 31.0791 37.4777 31.4275C37.2536 31.9162 36.9525 32.2181 36.4602 32.4478L36.0506 32.6389H22H7.9494L7.53517 32.4486C7.05073 32.2259 6.58153 31.7209 6.44693 31.2773C6.38097 31.06 6.35238 29.8891 6.35361 27.4556C6.35525 24.2326 6.36762 23.9207 6.50509 23.6219C6.7721 23.0418 7.3129 22.6112 7.96726 22.4579C8.12021 22.4221 12.6142 22.3982 18.9386 22.3968C18.12 22.0575 17.3701 21.5862 16.7152 21.0095ZM11.4313 25.6058C11.4313 24.8452 11.5131 24.512 11.7417 24.3404C11.9647 24.1734 12.4195 24.2068 12.6345 24.406C12.8089 24.5678 12.8241 24.6486 12.8241 25.4169C12.8241 26.0315 12.8511 26.2517 12.9265 26.251C12.9829 26.2506 13.3054 26.0872 13.6434 25.888C14.3718 25.4588 14.6295 25.4338 14.9605 25.7605C15.4216 26.2156 15.2487 26.5661 14.2922 27.1146C13.9354 27.3193 13.6442 27.5092 13.6451 27.5365C13.6461 27.5639 13.9569 27.7636 14.3357 27.9804C15.0669 28.3987 15.2546 28.6372 15.1564 29.0235C15.1272 29.1383 15.0311 29.2967 14.9427 29.3756C14.6742 29.6155 14.3058 29.5514 13.5813 29.1389C13.2141 28.9299 12.8935 28.7589 12.8689 28.7589C12.8443 28.7589 12.8241 29.1426 12.8241 29.6116C12.8241 30.4093 12.8111 30.4773 12.623 30.6629C12.3626 30.92 12.0025 30.9213 11.7022 30.6663C11.4834 30.4807 11.4703 30.4297 11.4313 29.618L11.3904 28.7648L10.7349 29.1412C9.94819 29.5929 9.62162 29.629 9.33152 29.2961C9.08311 29.0111 9.07934 28.6456 9.32234 28.4115C9.4241 28.3134 9.77352 28.0876 10.0988 27.9097C10.424 27.7318 10.691 27.5615 10.6921 27.5313C10.6932 27.501 10.4186 27.3263 10.0821 27.1429C9.21526 26.6706 8.99332 26.3465 9.23263 25.9029C9.50119 25.4053 9.85889 25.4103 10.7431 25.924L11.4313 26.3238V25.6058ZM21.2763 25.4469C21.3053 24.7337 21.3315 24.6183 21.505 24.436C21.6455 24.2884 21.7854 24.2302 22 24.2302C22.2146 24.2302 22.3545 24.2884 22.495 24.436C22.6685 24.6183 22.6947 24.7337 22.7237 25.4469C22.7417 25.8896 22.7762 26.2519 22.8003 26.2519C22.8244 26.2519 23.1318 26.0882 23.4833 25.888C24.2363 25.4593 24.4642 25.4371 24.7919 25.7605C25.2552 26.2178 25.0515 26.6171 24.0866 27.1429C23.7501 27.3263 23.4756 27.501 23.4767 27.5313C23.4777 27.5615 23.7755 27.75 24.1383 27.9502C25.0321 28.4431 25.2368 28.8375 24.8372 29.2961C24.5435 29.633 24.2077 29.5962 23.4268 29.1414L22.7783 28.7639L22.7328 29.6214C22.6898 30.4306 22.6745 30.4897 22.4619 30.6702C22.3375 30.7758 22.1307 30.8614 22 30.8614C21.8693 30.8614 21.6625 30.7758 21.5381 30.6702C21.3255 30.4897 21.3102 30.4306 21.2672 29.6214L21.2217 28.7639L20.5732 29.1414C19.7923 29.5962 19.4565 29.633 19.1628 29.2961C18.7627 28.837 18.9679 28.4428 19.8634 27.9502C20.2272 27.75 20.525 27.5639 20.5251 27.5365C20.5252 27.5092 20.2333 27.3193 19.8764 27.1146C18.92 26.5661 18.7471 26.2156 19.2081 25.7605C19.5358 25.4371 19.7637 25.4593 20.5167 25.888C20.8683 26.0882 21.1756 26.2519 21.1997 26.2519C21.2238 26.2519 21.2583 25.8896 21.2763 25.4469ZM31.1759 25.4282C31.1759 24.6938 31.1952 24.5843 31.354 24.4173C31.4723 24.2931 31.6255 24.2302 31.81 24.2302C32.4119 24.2302 32.5687 24.5158 32.5687 25.6126V26.3238L33.2569 25.924C34.1411 25.4103 34.4988 25.4053 34.7674 25.9029C35.0056 26.3444 34.7965 26.652 33.9229 27.1454C33.5836 27.337 33.3063 27.5146 33.3066 27.54C33.3068 27.5655 33.5734 27.7294 33.8989 27.9044C34.2243 28.0794 34.5743 28.3052 34.6767 28.4062C34.9203 28.6467 34.917 29.0109 34.6685 29.2961C34.3784 29.629 34.0518 29.5929 33.2651 29.1412L32.6096 28.7648L32.5687 29.618C32.5297 30.4297 32.5166 30.4807 32.2978 30.6663C31.9975 30.9213 31.6374 30.92 31.377 30.6629C31.1889 30.4773 31.1759 30.4093 31.1759 29.6116C31.1759 29.1426 31.1557 28.7589 31.1311 28.7589C31.1065 28.7589 30.7859 28.9299 30.4187 29.1389C29.6921 29.5527 29.3258 29.6155 29.0545 29.3731C28.9647 29.2929 28.8683 29.1245 28.8404 28.999C28.7549 28.6147 28.9725 28.3475 29.6947 27.9502C30.0586 27.75 30.3563 27.5622 30.3565 27.5327C30.3565 27.5032 30.0641 27.3125 29.7064 27.1089C28.7504 26.5646 28.578 26.216 29.0395 25.7605C29.369 25.4352 29.6108 25.4584 30.3652 25.888C30.7168 26.0882 31.043 26.2519 31.0901 26.2519C31.1443 26.2519 31.1759 25.9479 31.1759 25.4282Z" fill="#A4A4A4"/>
<path d="M16.8945 12.8309L16.8101 12.7772C17.159 12.2284 17.7608 11.5574 18.2285 11.1973C19.1825 10.4627 20.2733 10.0276 21.4501 9.91289C21.583 9.89992 21.8458 9.8975 22.1041 9.90224C22.3626 9.90699 22.6273 9.91912 22.7644 9.93697L22.7644 9.93697C24.1242 10.1141 25.3549 10.7182 26.3191 11.6823C27.2901 12.6532 27.8819 13.864 28.0688 15.2596C28.0946 15.4525 28.1035 15.7686 28.0988 16.081C28.094 16.3935 28.0753 16.7117 28.0436 16.909L27.9449 16.8931L28.0436 16.909C27.9384 17.563 27.769 18.0976 27.48 18.6865C27.1646 19.3294 26.8353 19.7869 26.3109 20.3112L26.2402 20.2405L26.3109 20.3112C25.7865 20.8355 25.3291 21.1647 24.686 21.4801C24.097 21.769 23.5624 21.9384 22.9083 22.0436C22.711 22.0753 22.3927 22.094 22.0802 22.0988C21.7678 22.1035 21.4516 22.0946 21.2587 22.0688C19.8629 21.8819 18.6519 21.2902 17.6809 20.3193C16.7099 19.3484 16.1181 18.1376 15.9312 16.742C15.9312 16.742 15.9312 16.742 15.9312 16.742L16.8945 12.8309ZM16.8945 12.8309L16.8101 12.7772C16.6577 13.017 16.3659 13.6146 16.2603 13.9028L16.2603 13.9028M16.8945 12.8309L16.2603 13.9028M16.2603 13.9028C16.1418 14.2261 16.0172 14.7143 15.9564 15.0927L16.0551 15.1085L16.2603 13.9028ZM22.7515 10.0361L22.7515 10.0361L22.7515 10.0361ZM22.6823 11.144L22.6969 11.0451L22.6823 11.144C23.5418 11.2704 24.2907 11.5807 24.9579 12.0857L25.0182 12.006L24.9579 12.0857L25.0148 12.1288L21.5694 15.5726L18.1252 19.0151L18.0619 18.9285L17.9826 18.9865L18.0619 18.9285C17.6647 18.3851 17.4014 17.832 17.2445 17.2131C17.0613 16.4905 17.0495 15.6519 17.2122 14.9189L17.1146 14.8972L17.2122 14.9189C17.614 13.1096 19.1058 11.6178 20.918 11.2135C21.4592 11.0927 22.1497 11.0657 22.6823 11.144ZM25.9157 13.0434L25.9954 12.983L25.9157 13.0434C25.9756 13.1226 26.0852 13.2807 26.1582 13.3936C26.8278 14.4293 27.067 15.8254 26.7878 17.0828C26.4251 18.7162 25.1722 20.1054 23.5711 20.6477C23.0499 20.8243 22.562 20.9024 21.9774 20.9022C20.9243 20.9019 19.9474 20.5782 19.0719 19.9383L18.9854 19.8751L22.4282 16.4314L25.8725 12.9864L25.9157 13.0434Z" fill="#A4A4A4" stroke="#A4A4A4" stroke-width="0.2"/>
</svg>
