<svg width="34" height="25" viewBox="0 0 34 25" fill="none" xmlns="http://www.w3.org/2000/svg">
<path fill-rule="evenodd" clip-rule="evenodd" d="M11.7152 12.0095C6.8571 12.0201 2.95041 12.0448 2.75343 12.083C1.72106 12.283 0.754063 13.0275 0.272573 13.9928L0 14.5394V18.5441V22.5488L0.2312 23.0137C0.587585 23.7303 1.17976 24.3156 1.9081 24.6709L2.53124 24.9749L16.8283 24.996C29.6869 25.015 31.1703 25.0042 31.5728 24.8887C32.481 24.6281 33.3248 23.9053 33.7736 23.0036L34 22.5488V18.5441V14.5394L33.7274 13.9928C33.231 12.9977 32.2824 12.2839 31.1824 12.078C30.9799 12.0401 27.11 12.0169 22.2867 12.0078C21.6289 12.5874 20.8751 13.0607 20.0522 13.4006L31.0506 13.4107L31.4202 13.5795C31.8798 13.7895 32.2989 14.1961 32.4949 14.6219C32.6326 14.9211 32.6446 15.232 32.6446 18.5054C32.6446 21.9121 32.6375 22.0791 32.4777 22.4275C32.2536 22.9162 31.9525 23.2181 31.4602 23.4478L31.0506 23.6389H17H2.9494L2.53517 23.4486C2.05073 23.2259 1.58153 22.7209 1.44693 22.2773C1.38097 22.06 1.35238 20.8891 1.35361 18.4556C1.35525 15.2326 1.36762 14.9207 1.50509 14.6219C1.7721 14.0418 2.3129 13.6112 2.96726 13.4579C3.12021 13.4221 7.61422 13.3982 13.9386 13.3968C13.12 13.0575 12.3701 12.5862 11.7152 12.0095ZM6.43133 16.6058C6.43133 15.8452 6.51309 15.512 6.74175 15.3404C6.96467 15.1734 7.41954 15.2068 7.63452 15.406C7.80894 15.5678 7.8241 15.6486 7.8241 16.4169C7.8241 17.0315 7.85113 17.2517 7.92651 17.251C7.98287 17.2506 8.30542 17.0872 8.64337 16.888C9.37179 16.4588 9.62954 16.4338 9.96052 16.7605C10.4216 17.2156 10.2487 17.5661 9.29224 18.1146C8.93536 18.3193 8.64419 18.5092 8.64509 18.5365C8.64608 18.5639 8.95691 18.7636 9.33574 18.9804C10.0669 19.3987 10.2546 19.6372 10.1564 20.0235C10.1272 20.1383 10.0311 20.2967 9.94275 20.3756C9.67419 20.6155 9.30584 20.5514 8.58127 20.1389C8.21407 19.9299 7.89349 19.7589 7.86891 19.7589C7.84425 19.7589 7.8241 20.1426 7.8241 20.6116C7.8241 21.4093 7.81107 21.4773 7.62296 21.6629C7.3626 21.92 7.00253 21.9213 6.70218 21.6663C6.48343 21.4807 6.47032 21.4297 6.43133 20.618L6.39036 19.7648L5.73494 20.1412C4.94819 20.5929 4.62162 20.629 4.33152 20.2961C4.08311 20.0111 4.07934 19.6456 4.32234 19.4115C4.4241 19.3134 4.77352 19.0876 5.09877 18.9097C5.42402 18.7318 5.69103 18.5615 5.69209 18.5313C5.69316 18.501 5.41862 18.3263 5.08206 18.1429C4.21526 17.6706 3.99332 17.3465 4.23263 16.9029C4.50119 16.4053 4.85889 16.4103 5.74305 16.924L6.43133 17.3238V16.6058ZM16.2763 16.4469C16.3053 15.7337 16.3315 15.6183 16.505 15.436C16.6455 15.2884 16.7854 15.2302 17 15.2302C17.2146 15.2302 17.3545 15.2884 17.495 15.436C17.6685 15.6183 17.6947 15.7337 17.7237 16.4469C17.7417 16.8896 17.7762 17.2519 17.8003 17.2519C17.8244 17.2519 18.1318 17.0882 18.4833 16.888C19.2363 16.4593 19.4642 16.4371 19.7919 16.7605C20.2552 17.2178 20.0515 17.6171 19.0866 18.1429C18.7501 18.3263 18.4756 18.501 18.4767 18.5313C18.4777 18.5615 18.7755 18.75 19.1383 18.9502C20.0321 19.4431 20.2368 19.8375 19.8372 20.2961C19.5435 20.633 19.2077 20.5962 18.4268 20.1414L17.7783 19.7639L17.7328 20.6214C17.6898 21.4306 17.6745 21.4897 17.4619 21.6702C17.3375 21.7758 17.1307 21.8614 17 21.8614C16.8693 21.8614 16.6625 21.7758 16.5381 21.6702C16.3255 21.4897 16.3102 21.4306 16.2672 20.6214L16.2217 19.7639L15.5732 20.1414C14.7923 20.5962 14.4565 20.633 14.1628 20.2961C13.7627 19.837 13.9679 19.4428 14.8634 18.9502C15.2272 18.75 15.525 18.5639 15.5251 18.5365C15.5252 18.5092 15.2333 18.3193 14.8764 18.1146C13.92 17.5661 13.7471 17.2156 14.2081 16.7605C14.5358 16.4371 14.7637 16.4593 15.5167 16.888C15.8683 17.0882 16.1756 17.2519 16.1997 17.2519C16.2238 17.2519 16.2583 16.8896 16.2763 16.4469ZM26.1759 16.4282C26.1759 15.6938 26.1952 15.5843 26.354 15.4173C26.4723 15.2931 26.6255 15.2302 26.81 15.2302C27.4119 15.2302 27.5687 15.5158 27.5687 16.6126V17.3238L28.2569 16.924C29.1411 16.4103 29.4988 16.4053 29.7674 16.9029C30.0056 17.3444 29.7965 17.652 28.9229 18.1454C28.5836 18.337 28.3063 18.5146 28.3066 18.54C28.3068 18.5655 28.5734 18.7294 28.8989 18.9044C29.2243 19.0794 29.5743 19.3052 29.6767 19.4062C29.9203 19.6467 29.917 20.0109 29.6685 20.2961C29.3784 20.629 29.0518 20.5929 28.2651 20.1412L27.6096 19.7648L27.5687 20.618C27.5297 21.4297 27.5166 21.4807 27.2978 21.6663C26.9975 21.9213 26.6374 21.92 26.377 21.6629C26.1889 21.4773 26.1759 21.4093 26.1759 20.6116C26.1759 20.1426 26.1557 19.7589 26.1311 19.7589C26.1065 19.7589 25.7859 19.9299 25.4187 20.1389C24.6921 20.5527 24.3258 20.6155 24.0545 20.3731C23.9647 20.2929 23.8683 20.1245 23.8404 19.999C23.7549 19.6147 23.9725 19.3475 24.6947 18.9502C25.0586 18.75 25.3563 18.5622 25.3565 18.5327C25.3565 18.5032 25.0641 18.3125 24.7064 18.1089C23.7504 17.5646 23.578 17.216 24.0395 16.7605C24.369 16.4352 24.6108 16.4584 25.3652 16.888C25.7168 17.0882 26.043 17.2519 26.0901 17.2519C26.1443 17.2519 26.1759 16.9479 26.1759 16.4282Z" fill="#A4A4A4"/>
<path d="M11.8101 3.77723L11.8945 3.83088L11.8101 3.77723C11.6577 4.01702 11.3659 4.61457 11.2603 4.90277L11.2603 4.90278C11.1418 5.22614 11.0172 5.71428 10.9564 6.09267L11.0464 6.10714L10.9564 6.09267C10.9247 6.28991 10.906 6.60817 10.9012 6.92066C10.8965 7.23301 10.9054 7.54916 10.9312 7.74202C11.1181 9.13763 11.7099 10.3484 12.6809 11.3193C13.6519 12.2902 14.8629 12.8819 16.2587 13.0688C16.4516 13.0946 16.7678 13.1035 17.0802 13.0988C17.3927 13.094 17.711 13.0753 17.9083 13.0436C18.5624 12.9384 19.097 12.769 19.686 12.4801C20.3291 12.1647 20.7865 11.8355 21.3109 11.3112L21.2402 11.2405L21.3109 11.3112C21.8353 10.7869 22.1646 10.3294 22.48 9.6865C22.769 9.09755 22.9384 8.56304 23.0436 7.90899L22.9449 7.89311L23.0436 7.90899C23.0753 7.71175 23.094 7.39349 23.0988 7.081C23.1035 6.76865 23.0946 6.4525 23.0688 6.25964C22.8819 4.86403 22.2901 3.65322 21.3191 2.68233C20.3549 1.71823 19.1242 1.1141 17.7644 0.936971L17.7644 0.93697C17.6273 0.919115 17.3626 0.906991 17.1041 0.902244C16.8458 0.897499 16.583 0.899921 16.4501 0.912889C15.2733 1.0276 14.1825 1.46272 13.2285 2.19731C12.7608 2.55741 12.159 3.22842 11.8101 3.77723ZM17.6823 2.14403L17.6969 2.04509L17.6823 2.14403C18.5418 2.27044 19.2907 2.58067 19.9579 3.08572L20.0182 3.00599L19.9579 3.08572L20.0148 3.12884L16.5694 6.57263L13.1252 10.0151L13.0619 9.92854C12.6647 9.3851 12.4014 8.83203 12.2445 8.21313C12.0613 7.49046 12.0495 6.65185 12.2122 5.9189L12.1281 5.90022L12.2122 5.91889C12.614 4.10962 14.1058 2.61779 15.918 2.21347C16.4592 2.0927 17.1497 2.06567 17.6823 2.14403ZM20.9157 4.04337L20.994 3.98403L20.9157 4.04338C20.9756 4.12256 21.0852 4.28073 21.1582 4.39356C21.8278 5.42934 22.067 6.82536 21.7878 8.08276C21.4251 9.71622 20.1722 11.1054 18.5711 11.6477C18.0499 11.8243 17.562 11.9024 16.9774 11.9022C15.9243 11.9019 14.9474 11.5782 14.0719 10.9383L13.9854 10.8751L17.4282 7.43143L20.8725 3.9864L20.9157 4.04337Z" fill="#A4A4A4" stroke="#A4A4A4" stroke-width="0.2"/>
</svg>
