<svg width="44" height="44" viewBox="0 0 44 44" fill="none" xmlns="http://www.w3.org/2000/svg">
<path fill-rule="evenodd" clip-rule="evenodd" d="M8.89554 7.10931C8.03177 7.35653 7.31746 8.08847 7.09094 8.95853C7.01008 9.26898 7 10.718 7 21.9988C7 33.2796 7.01008 34.7286 7.09094 35.0391C7.32109 35.923 8.03575 36.6459 8.9225 36.8918C9.29532 36.9951 9.85249 36.9998 22.0009 36.9998C35.8932 36.9998 35.0422 37.0207 35.6511 36.6639C36.0255 36.4445 36.4128 36.0639 36.631 35.701C37.0257 35.0444 36.9996 36.011 36.9996 21.9988C36.9996 8.10429 37.0206 8.95548 36.6638 8.34648C36.4444 7.97204 36.0639 7.58471 35.701 7.36655C35.044 6.9716 36.0159 6.99745 21.9729 7.00202C10.0172 7.00594 9.23427 7.01239 8.89554 7.10931ZM34.7511 8.87649C34.9321 8.96415 35.0335 9.06553 35.1212 9.24659L35.2419 9.49593V21.9988V34.5017L35.1212 34.751C35.0335 34.9321 34.9321 35.0335 34.7511 35.1211L34.5018 35.2418H21.9998H9.49788L9.24857 35.1211C9.06751 35.0335 8.96615 34.9321 8.87849 34.751L8.75779 34.5017V21.9988C8.75779 9.51251 8.75797 9.49563 8.87797 9.24771C8.96375 9.07045 9.06845 8.96462 9.24417 8.87766L9.4902 8.7559L21.996 8.75584L34.5018 8.75578L34.7511 8.87649ZM15.4543 13.3046C15.3207 13.3705 14.8443 13.9602 13.8137 15.3353L12.3613 17.2731V23.7524V30.2318L12.4919 30.415C12.7784 30.8166 12.0619 30.7884 21.9998 30.7884C31.9377 30.7884 31.2213 30.8166 31.5077 30.415L31.6384 30.2318V23.7524V17.2731L30.1853 15.3343C29.0998 13.886 28.6825 13.372 28.5358 13.3024C28.36 13.219 27.6744 13.2093 21.991 13.2105C16.3186 13.2117 15.6224 13.2217 15.4543 13.3046ZM28.3729 15.8461L29.0318 16.725H21.9998H14.9678L15.6267 15.8461L16.2856 14.9671H21.9998H27.7141L28.3729 15.8461ZM29.9099 23.7567V29.0305H21.9998H14.0898V23.7567V18.483H21.9998H29.9099V23.7567Z" fill="#FF9933"/>
</svg>
