<svg width="44" height="44" viewBox="0 0 44 44" fill="none" xmlns="http://www.w3.org/2000/svg">
<path d="M24.606 24.903L24.35 24.6471V25.0091V31.0045V36C24.35 36.4694 23.9694 36.85 23.5 36.85H15.75H8C7.53056 36.85 7.15 36.4694 7.15 36V22V9C7.15 7.97827 7.97827 7.15 9 7.15H15.75H23.5C23.9694 7.15 24.35 7.53056 24.35 8V12.9955V18.9909V19.3529L24.606 19.097L26.481 17.2233L28.356 15.3495L28.4 15.3056V15.2434V12.3717V10.5C28.4 10.0306 28.7806 9.65 29.25 9.65H32.625H36C36.4694 9.65 36.85 10.0306 36.85 10.5V13.875V17.25C36.85 17.7194 36.4694 18.1 36 18.1H32.8783H28.7566H28.6944L28.6505 18.144L26.7767 20.019L24.903 21.894L24.797 22L24.903 22.106L26.7767 23.981L28.6505 25.856L28.6944 25.9H28.7566H32.8783H36C36.4694 25.9 36.85 26.2806 36.85 26.75V30.125V33.5C36.85 33.9694 36.4694 34.35 36 34.35H32.625H29.25C28.7806 34.35 28.4 33.9694 28.4 33.5V31.6283V28.7566V28.6944L28.356 28.6505L26.481 26.7767L24.606 24.903ZM22 34.65H22.15V34.5V22V9.5V9.35H22H15.75H9.5H9.35V9.5V22V34.5V34.65H9.5H15.75H22ZM34.5 15.9H34.65V15.75V13.875V12V11.85H34.5H32.625H30.75H30.6V12V13.875V15.75V15.9H30.75H32.625H34.5ZM15.2982 27.2474L15.2383 27.1099L15.2982 27.2474C15.927 26.9736 16.7 27.3715 16.8191 28.0065C17.0247 29.1027 15.7538 29.7789 14.9875 29.0125C14.4418 28.4668 14.6107 27.5469 15.2982 27.2474ZM34.5 32.15H34.65V32V30.125V28.25V28.1H34.5H32.625H30.75H30.6V28.25V30.125V32V32.15H30.75H32.625H34.5ZM12.15 13.5V13.25V13C12.15 12.5306 12.5306 12.15 13 12.15H15.75H18.5C18.9694 12.15 19.35 12.5306 19.35 13V13.25V13.5C19.35 13.9694 18.9694 14.35 18.5 14.35H15.75H13C12.5306 14.35 12.15 13.9694 12.15 13.5ZM12.15 18.5V18.25V18C12.15 17.5306 12.5306 17.15 13 17.15H15.75H18.5C18.9694 17.15 19.35 17.5306 19.35 18V18.25V18.5C19.35 18.9694 18.9694 19.35 18.5 19.35H15.75H13C12.5306 19.35 12.15 18.9694 12.15 18.5Z" fill="#FF9933" stroke="#1F1F1F" stroke-width="0.3"/>
</svg>
