<svg width="30" height="30" viewBox="0 0 30 30" fill="none" xmlns="http://www.w3.org/2000/svg">
<path d="M17.606 17.903L17.35 17.6471V18.0091V24.0045V29C17.35 29.4694 16.9694 29.85 16.5 29.85H8.75H1C0.530558 29.85 0.15 29.4694 0.15 29V15V2C0.15 0.978273 0.978273 0.15 2 0.15H8.75H16.5C16.9694 0.15 17.35 0.530558 17.35 1V5.99547V11.9909V12.3529L17.606 12.097L19.481 10.2233L21.356 8.34954L21.4 8.3056V8.24344V5.37172V3.5C21.4 3.03056 21.7806 2.65 22.25 2.65H25.625H29C29.4694 2.65 29.85 3.03056 29.85 3.5V6.875V10.25C29.85 10.7194 29.4694 11.1 29 11.1H25.8783H21.7566H21.6944L21.6505 11.144L19.7767 13.019L17.903 14.894L17.797 15L17.903 15.106L19.7767 16.981L21.6505 18.856L21.6944 18.9H21.7566H25.8783H29C29.4694 18.9 29.85 19.2806 29.85 19.75V23.125V26.5C29.85 26.9694 29.4694 27.35 29 27.35H25.625H22.25C21.7806 27.35 21.4 26.9694 21.4 26.5V24.6283V21.7566V21.6944L21.356 21.6505L19.481 19.7767L17.606 17.903ZM15 27.65H15.15V27.5V15V2.5V2.35H15H8.75H2.5H2.35V2.5V15V27.5V27.65H2.5H8.75H15ZM27.5 8.9H27.65V8.75V6.875V5V4.85H27.5H25.625H23.75H23.6V5V6.875V8.75V8.9H23.75H25.625H27.5ZM8.29818 20.2474L8.23828 20.1099L8.29818 20.2474C8.92696 19.9736 9.69996 20.3715 9.81914 21.0065C10.0247 22.1027 8.75384 22.7789 7.98748 22.0125C7.44184 21.4668 7.61065 20.5469 8.29818 20.2474ZM27.5 25.15H27.65V25V23.125V21.25V21.1H27.5H25.625H23.75H23.6V21.25V23.125V25V25.15H23.75H25.625H27.5ZM5.15 6.5V6.25V6C5.15 5.53056 5.53056 5.15 6 5.15H8.75H11.5C11.9694 5.15 12.35 5.53056 12.35 6V6.25V6.5C12.35 6.96944 11.9694 7.35 11.5 7.35H8.75H6C5.53056 7.35 5.15 6.96944 5.15 6.5ZM5.15 11.5V11.25V11C5.15 10.5306 5.53056 10.15 6 10.15H8.75H11.5C11.9694 10.15 12.35 10.5306 12.35 11V11.25V11.5C12.35 11.9694 11.9694 12.35 11.5 12.35H8.75H6C5.53056 12.35 5.15 11.9694 5.15 11.5Z" fill="#FF9933" stroke="#FF9933" stroke-width="0.3"/>
</svg>
