<svg width="44" height="44" viewBox="0 0 44 44" fill="none" xmlns="http://www.w3.org/2000/svg">
<path d="M33.5792 33.7072C33.485 33.9042 33.2965 34.1631 33.1605 34.2825M33.5792 33.7072L33.7506 33.3491M33.5792 33.7072L33.489 33.664C33.3994 33.8513 33.2185 34.0985 33.0945 34.2074L33.0945 34.2074C32.9884 34.3006 32.9027 34.3676 32.8079 34.4185C32.714 34.4688 32.607 34.5055 32.4575 34.5319C32.1526 34.5856 31.6864 34.5942 30.8237 34.5942C29.9373 34.5942 29.4689 34.586 29.161 34.5251C29.0106 34.4953 28.9018 34.4534 28.803 34.3947C28.7026 34.3349 28.6089 34.2558 28.4892 34.1453L28.4892 34.1453C28.3086 33.9787 28.1521 33.8684 27.9939 33.8259C27.8286 33.7815 27.6763 33.8147 27.515 33.8994C27.2165 34.0559 27.0758 34.4134 27.1661 34.7491C27.2021 34.8829 27.2984 35.0202 27.4223 35.1492C27.548 35.2801 27.7102 35.4108 27.8909 35.5307C28.2513 35.7697 28.6964 35.9731 29.0935 36.0483C29.2159 36.0715 29.4638 36.0863 29.7977 36.0939C30.1348 36.1017 30.5674 36.1021 31.0649 36.0947C31.8097 36.0835 32.2171 36.0753 32.4809 36.0523C32.7514 36.0287 32.8766 35.9889 33.0561 35.9169C34.0195 35.5307 34.6877 34.8153 34.9767 33.8562L34.8809 33.8274L34.9767 33.8562C35.038 33.6526 35.0681 33.4909 35.0837 32.816C35.0992 32.1416 35.1003 30.9449 35.1 28.666C35.0997 26.7771 35.0953 25.5692 35.0828 24.8023C35.0766 24.419 35.0684 24.1448 35.0576 23.9504C35.0469 23.7586 35.0335 23.6371 35.0145 23.5642L35.0145 23.5641C34.7457 22.5334 33.9644 21.6798 32.9771 21.3413C32.6078 21.2147 32.4206 21.2061 30.8103 21.2079C29.2179 21.2098 29.0106 21.2198 28.6629 21.3425C28.3384 21.457 28.0065 21.6484 27.7373 21.86C27.4716 22.0687 27.2523 22.3087 27.1725 22.5258C27.0629 22.8243 27.1798 23.1155 27.3853 23.2912C27.5909 23.4669 27.8973 23.5378 28.1772 23.3861L28.1295 23.2982M33.5792 33.7072L33.489 33.664L33.6507 33.3262M33.1605 34.2825L28.1295 23.2982M33.1605 34.2825C32.7293 34.6612 32.5421 34.6942 30.8237 34.6942M33.1605 34.2825L30.8237 34.6942M33.7506 33.3491L33.7674 28.7566C33.7832 24.4381 33.8039 23.802 33.5063 23.4037C33.4361 23.3097 33.3482 23.229 33.2382 23.1162C32.7284 22.5931 32.5729 22.5571 30.8237 22.5571C29.2027 22.5571 28.9557 22.6032 28.5307 22.9851M33.7506 33.3491L33.6506 33.3487L33.6507 33.3262M33.7506 33.3491L33.6604 33.3059L33.6507 33.3262M28.5307 22.9851C28.3833 23.1175 28.2027 23.2584 28.1295 23.2982M28.5307 22.9851L28.5976 23.0595C28.8001 22.8775 28.9519 22.7813 29.2471 22.7262C29.5536 22.669 30.0104 22.6571 30.8237 22.6571C31.7031 22.6571 32.1657 22.6667 32.4732 22.7379C32.7662 22.8058 32.916 22.9289 33.1666 23.186C33.1956 23.2158 33.2225 23.2427 33.2473 23.2678C33.3521 23.3732 33.4229 23.4444 33.4793 23.545C33.5472 23.6662 33.5955 23.8358 33.6265 24.1657C33.6829 24.7675 33.6787 25.8575 33.6701 28.0543C33.6692 28.2767 33.6683 28.5105 33.6674 28.7562L33.6507 33.3262M28.5307 22.9851L28.5975 23.0595C28.522 23.1273 28.4383 23.1971 28.3638 23.2552C28.2912 23.3118 28.2219 23.3618 28.1772 23.3861L28.1295 23.2982M30.8237 34.6942C29.0594 34.6942 28.9031 34.6633 28.4214 34.2188L30.8237 34.6942ZM20.8657 7.97674L20.8657 7.97674C19.4959 8.23656 18.3869 8.84522 17.3974 9.87909L17.4647 9.94351L17.3974 9.87909C14.3982 13.0126 15.2747 18.2452 19.129 20.2074C21.9936 21.6658 25.4241 20.718 27.2133 17.9788L27.1296 17.9241L27.2133 17.9788C27.8601 16.9885 28.1948 15.9442 28.2531 14.7364C28.2959 13.8498 28.2074 13.1447 27.9537 12.36C27.2683 10.2404 25.6086 8.64564 23.5086 8.09302C22.7407 7.89092 21.5885 7.83967 20.8657 7.97674ZM17.5583 16.6024L17.5583 16.6024C17.2148 15.8726 17.1115 15.4566 17.0701 14.6347L17.0701 14.6347C16.949 12.2312 18.4456 10.1545 20.7585 9.51591C21.1274 9.41409 21.3329 9.39681 22.071 9.41488L22.0734 9.31491L22.071 9.41488C22.4556 9.42428 22.6872 9.43522 22.8747 9.46144C23.0596 9.4873 23.2037 9.52832 23.4125 9.60121L23.4454 9.50679L23.4125 9.60121C25.0666 10.1786 26.2311 11.4493 26.6784 13.1667C26.8564 13.8504 26.8562 14.9364 26.678 15.6187C26.1902 17.4855 24.8459 18.8347 23.038 19.2779C22.696 19.3618 22.2322 19.3968 21.7712 19.3841C21.3098 19.3714 20.8614 19.3111 20.5494 19.2098C19.2215 18.7785 18.1374 17.8326 17.5583 16.6024ZM10.0548 27.8017L10.0548 27.8017L9.91032 28.1145L9.9011 28.1344L9.9011 28.1564L9.90055 30.9404L9.9 33.7245L9.9 33.7464L9.90918 33.7663L10.0825 34.1423L10.0825 34.1423C10.2773 34.5646 10.5722 34.8725 11.0054 35.11L11.2628 35.2511L11.2851 35.2633L11.3105 35.2634L16.0354 35.2805C17.6574 35.2864 18.8515 35.2855 19.6537 35.2773C20.0547 35.2733 20.3585 35.2674 20.5692 35.2596C20.6744 35.2558 20.7574 35.2514 20.8181 35.2464C20.8483 35.2439 20.8742 35.2412 20.8951 35.2382C20.9127 35.2356 20.9368 35.2315 20.9567 35.223C21.0721 35.174 21.1765 35.0658 21.2505 34.9513C21.3247 34.8365 21.3807 34.6961 21.3807 34.5691C21.3807 34.4462 21.3265 34.3081 21.2556 34.1945C21.1848 34.0811 21.0849 33.9722 20.9748 33.9207L20.9748 33.9207C20.9545 33.9112 20.9303 33.9068 20.9137 33.9041C20.8937 33.9009 20.8689 33.898 20.8402 33.8954C20.7826 33.8901 20.7038 33.8853 20.6039 33.881C20.404 33.8724 20.115 33.8653 19.7324 33.8598C18.9671 33.8486 17.8241 33.8433 16.2625 33.8432C14.0542 33.8431 12.9236 33.8423 12.3204 33.8263C12.0178 33.8183 11.8534 33.8065 11.7537 33.7903C11.6608 33.7752 11.6295 33.7573 11.5911 33.7333C11.5453 33.7047 11.4956 33.6618 11.4536 33.6155C11.4112 33.5688 11.3838 33.5267 11.3734 33.4998C11.3732 33.4988 11.3724 33.4953 11.3713 33.4881C11.3696 33.4774 11.3677 33.4623 11.3658 33.4427C11.362 33.4034 11.3583 33.3496 11.3547 33.2817C11.3476 33.1461 11.3413 32.9584 11.336 32.7276C11.3256 32.2664 11.3194 31.636 11.3194 30.9135C11.3194 30.736 11.3192 30.5705 11.3191 30.4161C11.3186 29.9501 11.3182 29.5852 11.3232 29.2958C11.33 28.9087 11.3467 28.6661 11.3832 28.5025C11.4183 28.3452 11.4698 28.2699 11.545 28.2101C11.5858 28.1777 11.6362 28.1478 11.7021 28.1134C11.7379 28.0947 11.772 28.0777 11.8094 28.059C11.847 28.0403 11.8879 28.0199 11.937 27.9945C14.388 26.7282 17.2159 25.9106 20.0091 25.6612C20.4575 25.6212 20.7353 25.5871 20.9166 25.5247C21.0103 25.4925 21.0835 25.4511 21.1429 25.3938C21.2018 25.3369 21.2415 25.2699 21.2758 25.1959L21.2758 25.1958C21.3341 25.0696 21.3712 24.9673 21.3754 24.8633C21.3797 24.7571 21.3494 24.661 21.2993 24.548L21.2079 24.5886L21.2993 24.548C21.2578 24.4548 21.1982 24.3763 21.1132 24.315C21.0292 24.2545 20.9255 24.2142 20.8007 24.1891C20.5543 24.1394 20.2058 24.1451 19.7166 24.1902C16.9224 24.4478 13.9497 25.3213 11.3872 26.6375C10.6191 27.032 10.277 27.321 10.0548 27.8017ZM21.8752 29.1382L21.8752 29.1382L22.0534 29.3211L22.0828 29.3513H22.125H24.9042C25.6681 29.3513 26.3623 29.3562 26.8654 29.3642C27.117 29.3681 27.3203 29.3729 27.4604 29.3781C27.4694 29.3784 27.4781 29.3788 27.4866 29.3791C27.4576 29.4118 27.4237 29.4493 27.3856 29.491C27.2483 29.6414 27.0583 29.8433 26.8492 30.0602C26.4764 30.4467 26.2784 30.6524 26.1763 30.7967C26.1231 30.8719 26.0914 30.9361 26.075 31.0053C26.0591 31.0717 26.0589 31.1372 26.0589 31.2062C26.0589 31.3282 26.0654 31.4238 26.1008 31.5084C26.1372 31.5953 26.1992 31.6592 26.2812 31.73C26.3558 31.7944 26.4303 31.8422 26.5146 31.8732C26.5988 31.9041 26.6873 31.9163 26.7872 31.9163C26.8513 31.9163 26.9167 31.9152 26.9955 31.8825C27.0703 31.8515 27.1507 31.7949 27.2589 31.7006C27.4754 31.5122 27.8352 31.144 28.531 30.43C29.1865 29.7575 29.5444 29.3863 29.7375 29.1582C29.8339 29.0444 29.8945 28.9602 29.9302 28.8879C29.9684 28.8105 29.977 28.749 29.9764 28.6857V28.6857C29.9757 28.6177 29.9658 28.5423 29.9508 28.4746C29.9362 28.409 29.9146 28.3411 29.8863 28.2932C29.8756 28.2751 29.854 28.2495 29.8327 28.225C29.8086 28.1972 29.776 28.1611 29.7363 28.118C29.6569 28.0317 29.5472 27.9154 29.4155 27.7777C29.1519 27.5022 28.7988 27.1398 28.4197 26.7566C28.0498 26.3829 27.7697 26.1003 27.5519 25.8907C27.3351 25.682 27.1756 25.5411 27.0478 25.454C26.9191 25.3663 26.8101 25.3242 26.6971 25.3323C26.5904 25.34 26.4955 25.3927 26.4015 25.4451C26.281 25.5122 26.1908 25.5936 26.1337 25.7099C26.078 25.8232 26.0589 25.9591 26.0589 26.125C26.0589 26.1885 26.0607 26.25 26.0795 26.3157C26.0984 26.3821 26.1324 26.4459 26.1868 26.5211C26.2926 26.6673 26.4921 26.8782 26.8593 27.2619L27.47 27.9H24.9773C23.5023 27.9 22.7482 27.9006 22.3458 27.9445C22.1456 27.9664 22.0142 28.0003 21.9224 28.0633C21.8268 28.1289 21.7873 28.2179 21.7506 28.3005L21.75 28.3018C21.6818 28.4554 21.6543 28.6061 21.6753 28.7503C21.6963 28.8953 21.7651 29.0252 21.8752 29.1382Z" fill="#A4A4A4" stroke="#A4A4A4" stroke-width="0.2"/>
</svg>
