<svg width="38" height="28" viewBox="0 0 38 28" fill="none" xmlns="http://www.w3.org/2000/svg">
<mask id="path-1-outside-1_3985_68460" maskUnits="userSpaceOnUse" x="0" y="-0.5" width="38" height="29" fill="black">
<rect fill="white" y="-0.5" width="38" height="29"/>
<path fill-rule="evenodd" clip-rule="evenodd" d="M15.034 1.5H22.9604V9.14188H15.034V1.5ZM14.034 1.5C14.034 0.947716 14.4817 0.5 15.034 0.5H22.9604C23.5127 0.5 23.9604 0.947715 23.9604 1.5V9.14188C23.9604 9.69417 23.5127 10.1419 22.9604 10.1419H19.4998V13.4998H31.039C31.8674 13.4998 32.539 14.1714 32.539 14.9998V17.8712C35.035 18.0538 37.0032 20.1366 37.0032 22.6791C37.0032 25.3417 34.8448 27.5001 32.1823 27.5001H31.8978C29.2353 27.5001 27.0769 25.3417 27.0769 22.6791C27.0769 20.1373 29.044 18.0549 31.539 17.8714V14.9998C31.539 14.7237 31.3151 14.4998 31.039 14.4998H19.4998V17.8715C21.994 18.0558 23.9604 20.1378 23.9604 22.6791C23.9604 25.3417 21.802 27.5001 19.1395 27.5001H18.855C16.1924 27.5001 14.034 25.3417 14.034 22.6791C14.034 20.1361 16.0031 18.0529 18.4998 17.8711V14.4998H6.96576C6.68962 14.4998 6.46576 14.7237 6.46576 14.9999V17.8715C8.96 18.0558 10.9264 20.1378 10.9264 22.6791C10.9264 25.3417 8.76795 27.5001 6.10542 27.5001H5.82094C3.15841 27.5001 1 25.3417 1 22.6791C1 20.1361 2.96908 18.0529 5.46576 17.8711V14.9999C5.46576 14.1714 6.13734 13.4998 6.96576 13.4998H18.4998V10.1419H15.034C14.4817 10.1419 14.034 9.69417 14.034 9.14188V1.5ZM19.1395 18.8582H18.855C16.7447 18.8582 15.034 20.5689 15.034 22.6791C15.034 24.7894 16.7447 26.5001 18.855 26.5001H19.1395C21.2497 26.5001 22.9604 24.7894 22.9604 22.6791C22.9604 20.5689 21.2497 18.8582 19.1395 18.8582ZM31.8978 18.8582H32.1823C34.2925 18.8582 36.0032 20.5689 36.0032 22.6791C36.0032 24.7894 34.2925 26.5001 32.1823 26.5001H31.8978C29.7875 26.5001 28.0769 24.7894 28.0769 22.6791C28.0769 20.5689 29.7875 18.8582 31.8978 18.8582ZM6.10542 18.8582H5.82094C3.71069 18.8582 2 20.5689 2 22.6791C2 24.7894 3.71069 26.5001 5.82094 26.5001H6.10542C8.21567 26.5001 9.92636 24.7894 9.92636 22.6791C9.92636 20.5689 8.21567 18.8582 6.10542 18.8582Z"/>
</mask>
<path fill-rule="evenodd" clip-rule="evenodd" d="M15.034 1.5H22.9604V9.14188H15.034V1.5ZM14.034 1.5C14.034 0.947716 14.4817 0.5 15.034 0.5H22.9604C23.5127 0.5 23.9604 0.947715 23.9604 1.5V9.14188C23.9604 9.69417 23.5127 10.1419 22.9604 10.1419H19.4998V13.4998H31.039C31.8674 13.4998 32.539 14.1714 32.539 14.9998V17.8712C35.035 18.0538 37.0032 20.1366 37.0032 22.6791C37.0032 25.3417 34.8448 27.5001 32.1823 27.5001H31.8978C29.2353 27.5001 27.0769 25.3417 27.0769 22.6791C27.0769 20.1373 29.044 18.0549 31.539 17.8714V14.9998C31.539 14.7237 31.3151 14.4998 31.039 14.4998H19.4998V17.8715C21.994 18.0558 23.9604 20.1378 23.9604 22.6791C23.9604 25.3417 21.802 27.5001 19.1395 27.5001H18.855C16.1924 27.5001 14.034 25.3417 14.034 22.6791C14.034 20.1361 16.0031 18.0529 18.4998 17.8711V14.4998H6.96576C6.68962 14.4998 6.46576 14.7237 6.46576 14.9999V17.8715C8.96 18.0558 10.9264 20.1378 10.9264 22.6791C10.9264 25.3417 8.76795 27.5001 6.10542 27.5001H5.82094C3.15841 27.5001 1 25.3417 1 22.6791C1 20.1361 2.96908 18.0529 5.46576 17.8711V14.9999C5.46576 14.1714 6.13734 13.4998 6.96576 13.4998H18.4998V10.1419H15.034C14.4817 10.1419 14.034 9.69417 14.034 9.14188V1.5ZM19.1395 18.8582H18.855C16.7447 18.8582 15.034 20.5689 15.034 22.6791C15.034 24.7894 16.7447 26.5001 18.855 26.5001H19.1395C21.2497 26.5001 22.9604 24.7894 22.9604 22.6791C22.9604 20.5689 21.2497 18.8582 19.1395 18.8582ZM31.8978 18.8582H32.1823C34.2925 18.8582 36.0032 20.5689 36.0032 22.6791C36.0032 24.7894 34.2925 26.5001 32.1823 26.5001H31.8978C29.7875 26.5001 28.0769 24.7894 28.0769 22.6791C28.0769 20.5689 29.7875 18.8582 31.8978 18.8582ZM6.10542 18.8582H5.82094C3.71069 18.8582 2 20.5689 2 22.6791C2 24.7894 3.71069 26.5001 5.82094 26.5001H6.10542C8.21567 26.5001 9.92636 24.7894 9.92636 22.6791C9.92636 20.5689 8.21567 18.8582 6.10542 18.8582Z" fill="#FF9933"/>
<path d="M22.9604 1.5H23.2604V1.2H22.9604V1.5ZM15.034 1.5V1.2H14.734V1.5H15.034ZM22.9604 9.14188V9.44188H23.2604V9.14188H22.9604ZM15.034 9.14188H14.734V9.44188H15.034V9.14188ZM19.4998 10.1419V9.84188H19.1998V10.1419H19.4998ZM19.4998 13.4998H19.1998V13.7998H19.4998V13.4998ZM32.539 17.8712H32.239V18.1501L32.5171 18.1704L32.539 17.8712ZM31.539 17.8714L31.561 18.1705L31.839 18.1501V17.8714H31.539ZM19.4998 14.4998V14.1998H19.1998V14.4998H19.4998ZM19.4998 17.8715H19.1998V18.1501L19.4777 18.1707L19.4998 17.8715ZM18.4998 17.8711L18.5216 18.1703L18.7998 18.15V17.8711H18.4998ZM18.4998 14.4998H18.7998V14.1998H18.4998V14.4998ZM6.46576 17.8715H6.16576V18.1501L6.44366 18.1707L6.46576 17.8715ZM5.46576 17.8711L5.48755 18.1703L5.76577 18.15V17.8711H5.46576ZM18.4998 13.4998V13.7998H18.7998V13.4998H18.4998ZM18.4998 10.1419H18.7998V9.84188H18.4998V10.1419ZM22.9604 1.2H15.034V1.8H22.9604V1.2ZM23.2604 9.14188V1.5H22.6604V9.14188H23.2604ZM15.034 9.44188H22.9604V8.84188H15.034V9.44188ZM14.734 1.5V9.14188H15.334V1.5H14.734ZM15.034 0.2C14.3161 0.2 13.734 0.78203 13.734 1.5H14.334C14.334 1.1134 14.6474 0.8 15.034 0.8V0.2ZM22.9604 0.2H15.034V0.8H22.9604V0.2ZM24.2604 1.5C24.2604 0.78203 23.6784 0.2 22.9604 0.2V0.8C23.347 0.8 23.6604 1.1134 23.6604 1.5H24.2604ZM24.2604 9.14188V1.5H23.6604V9.14188H24.2604ZM22.9604 10.4419C23.6784 10.4419 24.2604 9.85985 24.2604 9.14188H23.6604C23.6604 9.52848 23.347 9.84188 22.9604 9.84188V10.4419ZM19.4998 10.4419H22.9604V9.84188H19.4998V10.4419ZM19.1998 10.1419V13.4998H19.7998V10.1419H19.1998ZM19.4998 13.7998H31.039V13.1998H19.4998V13.7998ZM31.039 13.7998C31.7017 13.7998 32.239 14.3371 32.239 14.9998H32.839C32.839 14.0057 32.0331 13.1998 31.039 13.1998V13.7998ZM32.239 14.9998V17.8712H32.839V14.9998H32.239ZM32.5171 18.1704C34.8575 18.3416 36.7032 20.2949 36.7032 22.6791H37.3032C37.3032 19.9782 35.2125 17.7659 32.5609 17.572L32.5171 18.1704ZM36.7032 22.6791C36.7032 25.176 34.6791 27.2001 32.1823 27.2001V27.8001C35.0105 27.8001 37.3032 25.5074 37.3032 22.6791H36.7032ZM32.1823 27.2001H31.8978V27.8001H32.1823V27.2001ZM31.8978 27.2001C29.4009 27.2001 27.3769 25.176 27.3769 22.6791H26.7769C26.7769 25.5074 29.0696 27.8001 31.8978 27.8001V27.2001ZM27.3769 22.6791C27.3769 20.2956 29.2216 18.3427 31.561 18.1705L31.517 17.5722C28.8665 17.7672 26.7769 19.979 26.7769 22.6791H27.3769ZM31.839 17.8714V14.9998H31.239V17.8714H31.839ZM31.839 14.9998C31.839 14.558 31.4808 14.1998 31.039 14.1998V14.7998C31.1495 14.7998 31.239 14.8894 31.239 14.9998H31.839ZM31.039 14.1998H19.4998V14.7998H31.039V14.1998ZM19.1998 14.4998V17.8715H19.7998V14.4998H19.1998ZM19.4777 18.1707C21.8164 18.3435 23.6604 20.2961 23.6604 22.6791H24.2604C24.2604 19.9795 22.1717 17.7681 19.5219 17.5723L19.4777 18.1707ZM23.6604 22.6791C23.6604 25.176 21.6363 27.2001 19.1395 27.2001V27.8001C21.9677 27.8001 24.2604 25.5074 24.2604 22.6791H23.6604ZM19.1395 27.2001H18.855V27.8001H19.1395V27.2001ZM18.855 27.2001C16.3581 27.2001 14.334 25.176 14.334 22.6791H13.734C13.734 25.5074 16.0268 27.8001 18.855 27.8001V27.2001ZM14.334 22.6791C14.334 20.2945 16.1806 18.3408 18.5216 18.1703L18.478 17.5719C15.8257 17.765 13.734 19.9777 13.734 22.6791H14.334ZM18.7998 17.8711V14.4998H18.1998V17.8711H18.7998ZM18.4998 14.1998H6.96576V14.7998H18.4998V14.1998ZM6.96576 14.1998C6.52394 14.1998 6.16576 14.558 6.16576 14.9999H6.76577C6.76577 14.8894 6.85531 14.7998 6.96576 14.7998V14.1998ZM6.16576 14.9999V17.8715H6.76577V14.9999H6.16576ZM6.44366 18.1707C8.78238 18.3435 10.6264 20.2961 10.6264 22.6791H11.2264C11.2264 19.9795 9.13762 17.7681 6.48787 17.5723L6.44366 18.1707ZM10.6264 22.6791C10.6264 25.176 8.60227 27.2001 6.10542 27.2001V27.8001C8.93364 27.8001 11.2264 25.5074 11.2264 22.6791H10.6264ZM6.10542 27.2001H5.82094V27.8001H6.10542V27.2001ZM5.82094 27.2001C3.32409 27.2001 1.3 25.176 1.3 22.6791H0.7C0.7 25.5074 2.99272 27.8001 5.82094 27.8001V27.2001ZM1.3 22.6791C1.3 20.2945 3.14653 18.3408 5.48755 18.1703L5.44398 17.5719C2.79162 17.765 0.7 19.9777 0.7 22.6791H1.3ZM5.76577 17.8711V14.9999H5.16576V17.8711H5.76577ZM5.76577 14.9999C5.76577 14.3371 6.30302 13.7998 6.96576 13.7998V13.1998C5.97165 13.1998 5.16576 14.0057 5.16576 14.9999H5.76577ZM6.96576 13.7998H18.4998V13.1998H6.96576V13.7998ZM18.7998 13.4998V10.1419H18.1998V13.4998H18.7998ZM15.034 10.4419H18.4998V9.84188H15.034V10.4419ZM13.734 9.14188C13.734 9.85985 14.3161 10.4419 15.034 10.4419V9.84188C14.6474 9.84188 14.334 9.52848 14.334 9.14188H13.734ZM13.734 1.5V9.14188H14.334V1.5H13.734ZM18.855 19.1582H19.1395V18.5582H18.855V19.1582ZM15.334 22.6791C15.334 20.7346 16.9104 19.1582 18.855 19.1582V18.5582C16.579 18.5582 14.734 20.4032 14.734 22.6791H15.334ZM18.855 26.2001C16.9104 26.2001 15.334 24.6237 15.334 22.6791H14.734C14.734 24.9551 16.579 26.8001 18.855 26.8001V26.2001ZM19.1395 26.2001H18.855V26.8001H19.1395V26.2001ZM22.6604 22.6791C22.6604 24.6237 21.084 26.2001 19.1395 26.2001V26.8001C21.4154 26.8001 23.2604 24.9551 23.2604 22.6791H22.6604ZM19.1395 19.1582C21.084 19.1582 22.6604 20.7346 22.6604 22.6791H23.2604C23.2604 20.4032 21.4154 18.5582 19.1395 18.5582V19.1582ZM32.1823 18.5582H31.8978V19.1582H32.1823V18.5582ZM36.3032 22.6791C36.3032 20.4032 34.4582 18.5582 32.1823 18.5582V19.1582C34.1268 19.1582 35.7032 20.7346 35.7032 22.6791H36.3032ZM32.1823 26.8001C34.4582 26.8001 36.3032 24.9551 36.3032 22.6791H35.7032C35.7032 24.6237 34.1268 26.2001 32.1823 26.2001V26.8001ZM31.8978 26.8001H32.1823V26.2001H31.8978V26.8001ZM27.7769 22.6791C27.7769 24.9551 29.6219 26.8001 31.8978 26.8001V26.2001C29.9532 26.2001 28.3769 24.6237 28.3769 22.6791H27.7769ZM31.8978 18.5582C29.6219 18.5582 27.7769 20.4032 27.7769 22.6791H28.3769C28.3769 20.7346 29.9532 19.1582 31.8978 19.1582V18.5582ZM5.82094 19.1582H6.10542V18.5582H5.82094V19.1582ZM2.3 22.6791C2.3 20.7346 3.87638 19.1582 5.82094 19.1582V18.5582C3.54501 18.5582 1.7 20.4032 1.7 22.6791H2.3ZM5.82094 26.2001C3.87638 26.2001 2.3 24.6237 2.3 22.6791H1.7C1.7 24.9551 3.54501 26.8001 5.82094 26.8001V26.2001ZM6.10542 26.2001H5.82094V26.8001H6.10542V26.2001ZM9.62636 22.6791C9.62636 24.6237 8.04998 26.2001 6.10542 26.2001V26.8001C8.38135 26.8001 10.2264 24.9551 10.2264 22.6791H9.62636ZM6.10542 19.1582C8.04998 19.1582 9.62636 20.7346 9.62636 22.6791H10.2264C10.2264 20.4032 8.38135 18.5582 6.10542 18.5582V19.1582Z" fill="#FF9933" mask="url(#path-1-outside-1_3985_68460)"/>
</svg>
