<svg width="36" height="38" viewBox="0 0 36 38" fill="none" xmlns="http://www.w3.org/2000/svg">
<path fill-rule="evenodd" clip-rule="evenodd" d="M4.27754 23.9398C2.69332 23.6928 1.29584 22.7335 0.550314 21.3812C0.218572 20.7794 0.0602594 20.2788 0.0145427 19.635L6.49549e-05 19.6183L0.00461373 19.4502C0.00121664 19.3594 -0.000232922 19.2655 0.000115444 19.1681C0.000323195 19.1102 0.00147206 19.0558 0.0035609 19.0047C0.00147206 18.9476 0.000323195 18.89 0.000115444 18.8321C-0.000731941 18.595 0.00905874 18.5222 0.0316405 18.5287C0.0640008 17.6705 0.118109 17.1518 0.221253 16.6654C0.491637 15.3903 1.26742 14.7134 2.91598 14.3141L3.29427 14.2224C2.85266 13.7328 2.53489 13.0558 2.39119 12.2727C2.32688 11.9224 2.3283 10.8917 2.39378 10.3946C2.58328 8.95594 3.20297 8.23304 4.41293 8.03915C4.70458 7.99244 5.22327 7.98666 5.51027 8.027C6.63117 8.18449 7.26574 8.77473 7.52101 9.89723C7.63031 10.3779 7.65614 10.6625 7.6563 11.3883C7.65646 11.9866 7.64919 12.1058 7.59677 12.3652C7.44396 13.1216 7.13876 13.7574 6.71434 14.2238L6.71995 14.2249C7.85689 14.456 8.67452 14.8261 9.13363 15.3177C9.46437 15.6718 9.69336 16.1642 9.82487 16.8041C9.8653 17.0008 9.90175 17.2858 9.93078 17.6127H11.9803L11.9956 17.6057C12.5951 17.3307 13.3748 16.6195 13.6848 16.0647C14.1077 15.308 14.1246 15.1605 14.1246 12.2305C14.1246 10.7685 14.1587 9.28603 14.2004 8.93621C14.3442 7.72957 14.7744 6.76405 15.5922 5.81197C16.2004 5.10385 16.8084 4.64692 17.6831 4.24069L17.7145 4.2261C18.0964 4.04871 18.3659 3.9235 18.6469 3.83444C19.3211 3.62072 20.0613 3.6151 22.5776 3.59597L22.6646 3.59531L25.8844 3.57079L25.9675 3.32783C26.1246 2.8684 26.5996 2.08711 26.968 1.68226C27.9635 0.58827 29.3209 0.00690024 30.8955 0.000176907C31.7567 -0.00358025 32.2694 0.108407 33.1152 0.484716C35.5518 1.56902 36.652 4.29935 35.5973 6.64422C35.0062 7.95817 33.6488 9.05875 32.1639 9.42807C31.5413 9.58291 30.1833 9.57921 29.5657 9.42102C28.5741 9.16705 27.5516 8.55048 26.928 7.83069C26.5825 7.4319 26.1254 6.65575 25.9672 6.19929L25.8815 5.95211L23.0859 5.95323C19.9821 5.95455 19.6843 5.98328 18.8608 6.36098C18.2017 6.66326 17.4403 7.37086 17.1503 7.95045C16.7413 8.76806 16.7336 8.83905 16.7327 11.7873C16.7318 14.4721 16.6884 15.1929 16.4823 15.9432C16.3626 16.3789 15.9878 17.1568 15.6787 17.6127H18.0002H25.8815L25.9672 17.3655C26.1129 16.9449 26.4957 16.2801 26.8354 15.8572C27.999 14.4093 30.2787 13.6704 32.1286 14.1417C34.0021 14.6188 35.3651 15.8845 35.8707 17.6165C35.9692 17.9538 36.0115 18.4927 35.9974 19.0001C36.0115 19.5075 35.9692 20.0464 35.8707 20.3837C35.3651 22.1157 34.0021 23.3814 32.1286 23.8585C30.2787 24.3297 27.999 23.5908 26.8354 22.143C26.4957 21.7201 26.1129 21.0553 25.9672 20.6347L25.8815 20.3875H18.0002H15.6787C15.9878 20.8434 16.3626 21.6213 16.4823 22.0569C16.6884 22.8072 16.7318 23.5281 16.7327 26.2129C16.7336 29.1611 16.7413 29.2321 17.1503 30.0497C17.4403 30.6293 18.2017 31.3369 18.8608 31.6392C19.6843 32.0169 19.9821 32.0456 23.0859 32.0469L25.8815 32.0481L25.9672 31.8009C26.1254 31.3444 26.5825 30.5683 26.928 30.1695C27.5516 29.4497 28.5741 28.8331 29.5657 28.5792C30.1833 28.421 31.5413 28.4173 32.1639 28.5721C33.6488 28.9414 35.0062 30.042 35.5973 31.356C36.652 33.7008 35.5518 36.4312 33.1152 37.5155C32.2694 37.8918 31.7567 38.0038 30.8955 38C29.3209 37.9933 27.9635 37.4119 26.968 36.3179C26.5996 35.9131 26.1246 35.1318 25.9675 34.6723L25.8844 34.4294L22.6646 34.4049L22.5776 34.4042C20.0613 34.3851 19.3211 34.3795 18.6469 34.1657C18.3659 34.0767 18.0964 33.9515 17.7146 33.7741L17.6831 33.7595C16.8084 33.3532 16.2004 32.8963 15.5922 32.1882C14.7744 31.2361 14.3442 30.2706 14.2004 29.064C14.1587 28.7141 14.1246 27.2317 14.1246 25.7697C14.1246 22.8397 14.1077 22.6922 13.6848 21.9354C13.3748 21.3806 12.5951 20.6695 11.9956 20.3945L11.9803 20.3875H10.119L10.0333 20.6347C9.88754 21.0553 9.50477 21.7201 9.16506 22.143C8.0901 23.4806 6.07759 24.2205 4.27754 23.9398ZM29.1246 20.5319C28.6288 20.09 28.3675 19.547 28.3167 19.0001C28.3675 18.4532 28.6288 17.9102 29.1246 17.4683C29.6675 16.9845 30.0357 16.8608 30.9307 16.8618C31.556 16.8624 31.6754 16.8821 31.9909 17.0373C32.4115 17.2441 32.8632 17.6499 33.1012 18.0347C33.2879 18.3365 33.3891 18.6665 33.4131 19.0001C33.3891 19.3336 33.2879 19.6636 33.1012 19.9655C32.8632 20.3503 32.4115 20.756 31.9909 20.9629C31.6754 21.118 31.556 21.1378 30.9307 21.1384C30.0357 21.1393 29.6675 21.0157 29.1246 20.5319ZM31.9909 6.92567C32.4092 6.7243 32.8614 6.31958 33.1012 5.932C33.8139 4.77994 33.2772 3.21063 31.9651 2.61015C31.5028 2.39856 30.7105 2.33199 30.2087 2.46256C28.3066 2.95765 27.676 5.17873 29.0714 6.46849C29.6307 6.98539 30.107 7.14543 31.0012 7.11702C31.5184 7.10055 31.701 7.06521 31.9909 6.92567ZM31.9909 31.0745C32.4092 31.2759 32.8614 31.6806 33.1012 32.0682C33.8139 33.2202 33.2772 34.7895 31.9651 35.39C31.5028 35.6016 30.7105 35.6682 30.2087 35.5376C28.3066 35.0425 27.676 32.8214 29.0714 31.5317C29.6307 31.0148 30.107 30.8547 31.0012 30.8831C31.5184 30.8996 31.701 30.935 31.9909 31.0745Z" fill="#A4A4A4"/>
</svg>
