<svg width="44" height="44" viewBox="0 0 44 44" fill="none" xmlns="http://www.w3.org/2000/svg">
<path fill-rule="evenodd" clip-rule="evenodd" d="M12.4703 7.0439C11.1695 7.26664 9.81626 7.9787 8.86958 8.93863C8.07849 9.74082 7.54505 10.6474 7.18446 11.8024L7 12.3932V21.9775V31.5617L7.14993 32.0793C7.84722 34.4866 9.52368 36.1631 11.931 36.8604L12.4486 37.0103H21.9672H31.4858L32.0196 36.8677C34.4179 36.2271 36.1443 34.5157 36.8501 32.0793L37 31.5617V22.0103V12.4589L36.8501 11.9413C36.1627 9.5683 34.5563 7.92565 32.2079 7.1943L31.6171 7.01029L22.1969 7.00084C17.0159 6.99565 12.6389 7.01502 12.4703 7.0439ZM31.4917 9.20896C32.3618 9.42815 32.9133 9.74732 33.5881 10.4222C34.263 11.097 34.5821 11.6485 34.8013 12.5186C34.9288 13.0247 34.9322 13.2662 34.9322 22.0103C34.9322 30.7544 34.9288 30.9959 34.8013 31.502C34.5821 32.3721 34.263 32.9236 33.5881 33.5984C32.9133 34.2733 32.3618 34.5924 31.4917 34.8116C30.9856 34.9391 30.7441 34.9425 22 34.9425C13.2559 34.9425 13.0144 34.9391 12.5083 34.8116C11.6382 34.5924 11.0867 34.2733 10.4119 33.5984C9.73702 32.9236 9.41786 32.3721 9.19867 31.502C9.07118 30.996 9.06783 30.7545 9.06783 22.0291C9.06783 12.0041 9.0398 12.6172 9.54606 11.5727C9.91256 10.8166 10.7636 9.95062 11.5072 9.57703C12.5432 9.0566 11.8698 9.08837 21.9731 9.08298C30.7526 9.07826 30.9851 9.08134 31.4917 9.20896ZM23.2801 15.9983C22.8244 16.2017 22.8292 16.1899 20.9818 21.7477C19.2683 26.903 19.2272 27.0389 19.3014 27.3077C19.5174 28.091 20.4594 28.3601 21.0186 27.7981C21.2443 27.5713 21.3594 27.2532 23.0126 22.2883C24.4393 18.0036 24.7589 16.9795 24.723 16.8069C24.6551 16.4802 24.4234 16.1793 24.1291 16.0356C23.8211 15.8852 23.5593 15.8737 23.2801 15.9983ZM16.453 17.7364C16.3446 17.8046 15.4385 18.6833 14.4393 19.6891C12.478 21.6634 12.4708 21.6733 12.5774 22.2565C12.6163 22.4687 12.8772 22.7587 14.4721 24.3619C15.4893 25.3845 16.4014 26.2633 16.4989 26.3149C16.9397 26.5478 17.6012 26.3375 17.8566 25.8831C18.0086 25.6127 18.0396 25.1739 17.923 24.9436C17.883 24.8648 17.2261 24.1725 16.463 23.4053L15.0755 22.0103L16.463 20.6153C17.2261 19.8481 17.883 19.1558 17.923 19.077C18.0396 18.8467 18.0086 18.4079 17.8566 18.1375C17.5883 17.6601 16.8909 17.4609 16.453 17.7364ZM26.628 17.6739C26.4478 17.7474 26.1326 18.072 26.0623 18.2564C25.982 18.4671 25.9898 18.9049 26.077 19.077C26.117 19.1558 26.7739 19.8481 27.537 20.6153L28.9245 22.0103L27.537 23.4053C26.7739 24.1725 26.117 24.8648 26.077 24.9436C25.9604 25.1739 25.9914 25.6127 26.1434 25.8831C26.3988 26.3375 27.0603 26.5478 27.5011 26.3149C27.5986 26.2633 28.5107 25.3845 29.5279 24.3619C31.1228 22.7587 31.3837 22.4687 31.4226 22.2565C31.5294 21.6722 31.5251 21.6663 29.5279 19.6587C28.5107 18.6361 27.5986 17.7573 27.5011 17.7057C27.3096 17.6046 26.84 17.5874 26.628 17.6739Z" fill="#A4A4A4"/>
</svg>
