<svg width="44" height="44" viewBox="0 0 44 44" fill="none" xmlns="http://www.w3.org/2000/svg">
<path fill-rule="evenodd" clip-rule="evenodd" d="M8.57143 8.054C8.48163 8.09137 8.31633 8.22067 8.20408 8.34133L8 8.56079V22.0137V35.4666L8.26686 35.7333L8.53371 36H22H35.4663L35.7331 35.7333L36 35.4666V22.0087V8.55075L35.7331 8.28406L35.4663 8.01737L22.1005 8.00179C14.7493 7.99314 8.66122 8.01672 8.57143 8.054ZM16.1224 22.0087V34.0828H13.0204H9.91837V22.0087V9.93455H13.0204H16.1224V22.0087ZM34.0816 12.9531V15.9716H26.0816H18.0816V12.9531V9.93455H26.0816H34.0816V12.9531ZM34.0816 26.0062V34.0828H26.0816H18.0816V26.0062V17.9296H26.0816H34.0816V26.0062Z" fill="#FF9933"/>
</svg>
