<svg width="44" height="44" viewBox="0 0 44 44" fill="none" xmlns="http://www.w3.org/2000/svg">
<mask id="path-1-outside-1_2742_56511" maskUnits="userSpaceOnUse" x="6" y="6" width="33" height="33" fill="black">
<rect fill="white" x="6" y="6" width="33" height="33"/>
<path fill-rule="evenodd" clip-rule="evenodd" d="M21.1038 7.06124C14.9959 7.60748 9.72938 11.7668 7.78524 17.5799C6.6976 20.832 6.74159 24.5278 7.90624 27.7443C8.21191 28.5884 8.93238 30.065 9.38408 30.7729C10.2269 32.0938 11.5458 33.5778 12.7112 34.5165C16.3102 37.4154 20.8432 38.568 25.3754 37.7364C28.6445 37.1365 31.7924 35.3827 33.9816 32.9415C37.5759 28.9334 38.8522 23.5373 37.4317 18.3556C36.911 16.4565 35.9692 14.5963 34.6871 12.9344C34.176 12.272 32.7331 10.8295 32.0705 10.3186C28.8872 7.86406 25.0087 6.71204 21.1038 7.06124ZM21.9521 11.4201V14.7515L21.7855 14.7506C21.3624 14.7482 19.7294 14.6203 19.0741 14.5383C18.1157 14.4182 16.6202 14.136 16.6202 14.0752C16.6202 14.0488 16.7294 13.7532 16.8628 13.4183C17.8125 11.0353 19.2105 9.23917 20.6938 8.49637C21.0846 8.30066 21.6608 8.10393 21.8764 8.0926C21.9361 8.08945 21.9521 8.79318 21.9521 11.4201ZM23.5665 8.21659C24.0871 8.37698 24.3526 8.51067 24.9035 8.88997C26.1112 9.72144 27.272 11.3679 28.0968 13.4195C28.2488 13.7975 28.3667 14.1114 28.3588 14.117C28.3508 14.1226 28.0444 14.1846 27.6778 14.2548C26.4409 14.4915 25.1827 14.6395 23.694 14.7234L22.9821 14.7635V11.4261C22.9821 8.61182 22.9954 8.0886 23.0666 8.0886C23.1131 8.0886 23.338 8.1462 23.5665 8.21659ZM18.8014 8.5435C18.8014 8.56046 18.6105 8.78021 18.3772 9.03177C17.2575 10.239 16.3074 11.7922 15.7703 13.2933C15.6613 13.5979 15.539 13.843 15.4959 13.843C15.2006 13.843 12.2504 12.7029 12.0564 12.5138C11.9935 12.4525 13.0769 11.4739 13.8179 10.9225C15.0245 10.0248 16.4691 9.26921 17.8926 8.79118C18.7319 8.50933 18.8014 8.49038 18.8014 8.5435ZM27.2537 8.85878C29.1684 9.50884 31.3192 10.842 32.639 12.1968L32.9348 12.5006L32.5592 12.6901C31.6396 13.1542 29.5031 13.9088 29.4056 13.804C29.3791 13.7754 29.2963 13.5749 29.2216 13.3584C29.0064 12.7341 28.3 11.3189 27.9066 10.7235C27.49 10.0929 26.9718 9.43203 26.4672 8.88755C26.0508 8.43822 26.0184 8.43937 27.2537 8.85878ZM12.1433 13.6853C12.9881 14.0888 13.9647 14.4687 14.7419 14.6962C14.9919 14.7694 15.2059 14.8372 15.2176 14.8469C15.2292 14.8566 15.1404 15.2548 15.0202 15.7318C14.5934 17.4256 14.3153 19.3299 14.2232 21.1873L14.182 22.0202H11.0915H8.00088L8.04487 21.4002C8.20725 19.1101 8.98249 16.7802 10.2471 14.7818C10.4981 14.3851 11.2815 13.2978 11.3163 13.2978C11.3249 13.2978 11.6971 13.4722 12.1433 13.6853ZM33.934 13.6764C34.8635 14.855 35.6786 16.3734 36.2019 17.9013C36.5691 18.9732 36.825 20.2793 36.9406 21.6719L36.9695 22.0202H33.8536H30.7376V21.5477C30.7376 20.5283 30.5626 18.8427 30.3088 17.4167C30.2046 16.8313 29.8481 15.2852 29.7327 14.9181C29.7111 14.8494 29.7314 14.8121 29.7904 14.8121C30.1148 14.8121 32.562 13.8682 33.2294 13.4856C33.4085 13.383 33.5731 13.2987 33.5952 13.2983C33.6173 13.298 33.7698 13.4682 33.934 13.6764ZM16.941 15.2336C18.2343 15.4996 19.6583 15.6742 21.1796 15.7533L21.9521 15.7934V18.9068V22.0202H18.5916H15.2311L15.2622 21.3085C15.3343 19.6616 15.5974 17.7794 15.9629 16.2961C16.2362 15.1868 16.2575 15.115 16.3129 15.115C16.3413 15.115 16.6239 15.1683 16.941 15.2336ZM28.938 16.0387C29.3599 17.7617 29.5994 19.395 29.6795 21.0965L29.7231 22.0202H26.3526H22.9821V18.908V15.7959L23.7546 15.755C25.2743 15.6747 26.9222 15.4749 28.011 15.2389C28.2943 15.1775 28.5679 15.1245 28.6189 15.1211C28.6895 15.1164 28.766 15.3363 28.938 16.0387ZM14.2469 24.1866C14.3659 26.0998 14.596 27.6275 15.0193 29.314C15.1357 29.7775 15.2095 30.176 15.1833 30.1996C15.1572 30.2231 14.9313 30.3018 14.6814 30.3746C13.9291 30.5936 12.9401 30.9777 12.1024 31.3762L11.3109 31.7528L10.9421 31.2628C9.25302 29.0185 8.24215 26.3526 8.04039 23.6102L7.99912 23.0499H11.0877H14.1763L14.2469 24.1866ZM21.9521 26.1694V29.2888H21.4165C20.3825 29.2888 18.2382 29.542 16.8628 29.8265C16.5464 29.892 16.2781 29.9362 16.2667 29.9248C16.2553 29.9133 16.1669 29.5952 16.0705 29.2179C15.6515 27.5792 15.3274 25.3922 15.2663 23.7919L15.2381 23.0499H18.5951H21.9521V26.1694ZM29.6834 23.8828C29.5991 25.6144 29.2987 27.6639 28.9175 29.1071C28.8163 29.4903 28.723 29.8347 28.7101 29.8725C28.6933 29.9218 28.5259 29.9081 28.1216 29.8243C26.8512 29.5612 24.8049 29.3229 23.3759 29.2716L23.0124 29.2586L22.9967 26.1542L22.981 23.0499H26.3525H29.7239L29.6834 23.8828ZM36.9386 23.4285C36.856 24.5362 36.5767 26.0134 36.2715 26.9568C35.7894 28.4468 34.9266 30.0911 33.9942 31.2965L33.6361 31.7596L32.7775 31.3478C31.9514 30.9514 30.7347 30.4836 30.1014 30.3189C29.9347 30.2756 29.7801 30.2237 29.7576 30.2037C29.7351 30.1836 29.7831 29.9218 29.8642 29.622C30.3489 27.8309 30.7376 25.1179 30.7376 23.5257V23.0499H33.8522H36.9668L36.9386 23.4285ZM21.9521 33.6485V36.9785L21.7552 36.9417C21.3829 36.8722 20.6489 36.559 20.2556 36.3019C19.7901 35.9975 19.03 35.2862 18.6218 34.7731C18.1664 34.2006 17.6277 33.298 17.2379 32.4544C16.8165 31.5427 16.5938 30.9911 16.6316 30.9533C16.6755 30.9095 17.7435 30.701 18.4985 30.5889C19.4719 30.4444 20.664 30.335 21.3613 30.3261L21.9521 30.3186V33.6485ZM24.9061 30.4097C25.4477 30.4595 26.1566 30.5406 26.4814 30.59C27.1154 30.6864 28.3216 30.9115 28.3477 30.9383C28.3793 30.9708 27.8418 32.2402 27.5613 32.7956C26.3522 35.19 24.8947 36.5612 23.1487 36.947L22.9821 36.9838V33.6512V30.3186L23.4517 30.3188C23.7099 30.3189 24.3644 30.3598 24.9061 30.4097ZM30.3437 31.4741C31.3012 31.7806 32.9327 32.4875 32.9015 32.5823C32.8891 32.6199 32.6084 32.8939 32.2778 33.1912C30.5958 34.704 28.7765 35.736 26.63 36.3951C26.0509 36.5728 26.0471 36.5944 26.7249 35.8563C27.7698 34.7184 28.7974 32.981 29.2555 31.5778C29.3865 31.1766 29.3925 31.1665 29.4823 31.1969C29.5229 31.2107 29.9105 31.3354 30.3437 31.4741ZM15.7386 31.6966C15.9917 32.4201 16.622 33.6729 17.0871 34.3769C17.5076 35.0133 18.2547 35.9465 18.6117 36.2811C18.7161 36.3789 18.8014 36.479 18.8014 36.5034C18.8014 36.5638 17.938 36.2964 17.1718 35.9987C15.854 35.4867 14.5091 34.7027 13.3787 33.7875C12.7667 33.2921 12.03 32.5837 12.0795 32.5382C12.3331 32.3048 15.0787 31.2378 15.446 31.2299C15.5524 31.2276 15.6026 31.3076 15.7386 31.6966Z"/>
</mask>
<path fill-rule="evenodd" clip-rule="evenodd" d="M21.1038 7.06124C14.9959 7.60748 9.72938 11.7668 7.78524 17.5799C6.6976 20.832 6.74159 24.5278 7.90624 27.7443C8.21191 28.5884 8.93238 30.065 9.38408 30.7729C10.2269 32.0938 11.5458 33.5778 12.7112 34.5165C16.3102 37.4154 20.8432 38.568 25.3754 37.7364C28.6445 37.1365 31.7924 35.3827 33.9816 32.9415C37.5759 28.9334 38.8522 23.5373 37.4317 18.3556C36.911 16.4565 35.9692 14.5963 34.6871 12.9344C34.176 12.272 32.7331 10.8295 32.0705 10.3186C28.8872 7.86406 25.0087 6.71204 21.1038 7.06124ZM21.9521 11.4201V14.7515L21.7855 14.7506C21.3624 14.7482 19.7294 14.6203 19.0741 14.5383C18.1157 14.4182 16.6202 14.136 16.6202 14.0752C16.6202 14.0488 16.7294 13.7532 16.8628 13.4183C17.8125 11.0353 19.2105 9.23917 20.6938 8.49637C21.0846 8.30066 21.6608 8.10393 21.8764 8.0926C21.9361 8.08945 21.9521 8.79318 21.9521 11.4201ZM23.5665 8.21659C24.0871 8.37698 24.3526 8.51067 24.9035 8.88997C26.1112 9.72144 27.272 11.3679 28.0968 13.4195C28.2488 13.7975 28.3667 14.1114 28.3588 14.117C28.3508 14.1226 28.0444 14.1846 27.6778 14.2548C26.4409 14.4915 25.1827 14.6395 23.694 14.7234L22.9821 14.7635V11.4261C22.9821 8.61182 22.9954 8.0886 23.0666 8.0886C23.1131 8.0886 23.338 8.1462 23.5665 8.21659ZM18.8014 8.5435C18.8014 8.56046 18.6105 8.78021 18.3772 9.03177C17.2575 10.239 16.3074 11.7922 15.7703 13.2933C15.6613 13.5979 15.539 13.843 15.4959 13.843C15.2006 13.843 12.2504 12.7029 12.0564 12.5138C11.9935 12.4525 13.0769 11.4739 13.8179 10.9225C15.0245 10.0248 16.4691 9.26921 17.8926 8.79118C18.7319 8.50933 18.8014 8.49038 18.8014 8.5435ZM27.2537 8.85878C29.1684 9.50884 31.3192 10.842 32.639 12.1968L32.9348 12.5006L32.5592 12.6901C31.6396 13.1542 29.5031 13.9088 29.4056 13.804C29.3791 13.7754 29.2963 13.5749 29.2216 13.3584C29.0064 12.7341 28.3 11.3189 27.9066 10.7235C27.49 10.0929 26.9718 9.43203 26.4672 8.88755C26.0508 8.43822 26.0184 8.43937 27.2537 8.85878ZM12.1433 13.6853C12.9881 14.0888 13.9647 14.4687 14.7419 14.6962C14.9919 14.7694 15.2059 14.8372 15.2176 14.8469C15.2292 14.8566 15.1404 15.2548 15.0202 15.7318C14.5934 17.4256 14.3153 19.3299 14.2232 21.1873L14.182 22.0202H11.0915H8.00088L8.04487 21.4002C8.20725 19.1101 8.98249 16.7802 10.2471 14.7818C10.4981 14.3851 11.2815 13.2978 11.3163 13.2978C11.3249 13.2978 11.6971 13.4722 12.1433 13.6853ZM33.934 13.6764C34.8635 14.855 35.6786 16.3734 36.2019 17.9013C36.5691 18.9732 36.825 20.2793 36.9406 21.6719L36.9695 22.0202H33.8536H30.7376V21.5477C30.7376 20.5283 30.5626 18.8427 30.3088 17.4167C30.2046 16.8313 29.8481 15.2852 29.7327 14.9181C29.7111 14.8494 29.7314 14.8121 29.7904 14.8121C30.1148 14.8121 32.562 13.8682 33.2294 13.4856C33.4085 13.383 33.5731 13.2987 33.5952 13.2983C33.6173 13.298 33.7698 13.4682 33.934 13.6764ZM16.941 15.2336C18.2343 15.4996 19.6583 15.6742 21.1796 15.7533L21.9521 15.7934V18.9068V22.0202H18.5916H15.2311L15.2622 21.3085C15.3343 19.6616 15.5974 17.7794 15.9629 16.2961C16.2362 15.1868 16.2575 15.115 16.3129 15.115C16.3413 15.115 16.6239 15.1683 16.941 15.2336ZM28.938 16.0387C29.3599 17.7617 29.5994 19.395 29.6795 21.0965L29.7231 22.0202H26.3526H22.9821V18.908V15.7959L23.7546 15.755C25.2743 15.6747 26.9222 15.4749 28.011 15.2389C28.2943 15.1775 28.5679 15.1245 28.6189 15.1211C28.6895 15.1164 28.766 15.3363 28.938 16.0387ZM14.2469 24.1866C14.3659 26.0998 14.596 27.6275 15.0193 29.314C15.1357 29.7775 15.2095 30.176 15.1833 30.1996C15.1572 30.2231 14.9313 30.3018 14.6814 30.3746C13.9291 30.5936 12.9401 30.9777 12.1024 31.3762L11.3109 31.7528L10.9421 31.2628C9.25302 29.0185 8.24215 26.3526 8.04039 23.6102L7.99912 23.0499H11.0877H14.1763L14.2469 24.1866ZM21.9521 26.1694V29.2888H21.4165C20.3825 29.2888 18.2382 29.542 16.8628 29.8265C16.5464 29.892 16.2781 29.9362 16.2667 29.9248C16.2553 29.9133 16.1669 29.5952 16.0705 29.2179C15.6515 27.5792 15.3274 25.3922 15.2663 23.7919L15.2381 23.0499H18.5951H21.9521V26.1694ZM29.6834 23.8828C29.5991 25.6144 29.2987 27.6639 28.9175 29.1071C28.8163 29.4903 28.723 29.8347 28.7101 29.8725C28.6933 29.9218 28.5259 29.9081 28.1216 29.8243C26.8512 29.5612 24.8049 29.3229 23.3759 29.2716L23.0124 29.2586L22.9967 26.1542L22.981 23.0499H26.3525H29.7239L29.6834 23.8828ZM36.9386 23.4285C36.856 24.5362 36.5767 26.0134 36.2715 26.9568C35.7894 28.4468 34.9266 30.0911 33.9942 31.2965L33.6361 31.7596L32.7775 31.3478C31.9514 30.9514 30.7347 30.4836 30.1014 30.3189C29.9347 30.2756 29.7801 30.2237 29.7576 30.2037C29.7351 30.1836 29.7831 29.9218 29.8642 29.622C30.3489 27.8309 30.7376 25.1179 30.7376 23.5257V23.0499H33.8522H36.9668L36.9386 23.4285ZM21.9521 33.6485V36.9785L21.7552 36.9417C21.3829 36.8722 20.6489 36.559 20.2556 36.3019C19.7901 35.9975 19.03 35.2862 18.6218 34.7731C18.1664 34.2006 17.6277 33.298 17.2379 32.4544C16.8165 31.5427 16.5938 30.9911 16.6316 30.9533C16.6755 30.9095 17.7435 30.701 18.4985 30.5889C19.4719 30.4444 20.664 30.335 21.3613 30.3261L21.9521 30.3186V33.6485ZM24.9061 30.4097C25.4477 30.4595 26.1566 30.5406 26.4814 30.59C27.1154 30.6864 28.3216 30.9115 28.3477 30.9383C28.3793 30.9708 27.8418 32.2402 27.5613 32.7956C26.3522 35.19 24.8947 36.5612 23.1487 36.947L22.9821 36.9838V33.6512V30.3186L23.4517 30.3188C23.7099 30.3189 24.3644 30.3598 24.9061 30.4097ZM30.3437 31.4741C31.3012 31.7806 32.9327 32.4875 32.9015 32.5823C32.8891 32.6199 32.6084 32.8939 32.2778 33.1912C30.5958 34.704 28.7765 35.736 26.63 36.3951C26.0509 36.5728 26.0471 36.5944 26.7249 35.8563C27.7698 34.7184 28.7974 32.981 29.2555 31.5778C29.3865 31.1766 29.3925 31.1665 29.4823 31.1969C29.5229 31.2107 29.9105 31.3354 30.3437 31.4741ZM15.7386 31.6966C15.9917 32.4201 16.622 33.6729 17.0871 34.3769C17.5076 35.0133 18.2547 35.9465 18.6117 36.2811C18.7161 36.3789 18.8014 36.479 18.8014 36.5034C18.8014 36.5638 17.938 36.2964 17.1718 35.9987C15.854 35.4867 14.5091 34.7027 13.3787 33.7875C12.7667 33.2921 12.03 32.5837 12.0795 32.5382C12.3331 32.3048 15.0787 31.2378 15.446 31.2299C15.5524 31.2276 15.6026 31.3076 15.7386 31.6966Z" fill="#A4A4A4"/>
<path fill-rule="evenodd" clip-rule="evenodd" d="M21.1038 7.06124C14.9959 7.60748 9.72938 11.7668 7.78524 17.5799C6.6976 20.832 6.74159 24.5278 7.90624 27.7443C8.21191 28.5884 8.93238 30.065 9.38408 30.7729C10.2269 32.0938 11.5458 33.5778 12.7112 34.5165C16.3102 37.4154 20.8432 38.568 25.3754 37.7364C28.6445 37.1365 31.7924 35.3827 33.9816 32.9415C37.5759 28.9334 38.8522 23.5373 37.4317 18.3556C36.911 16.4565 35.9692 14.5963 34.6871 12.9344C34.176 12.272 32.7331 10.8295 32.0705 10.3186C28.8872 7.86406 25.0087 6.71204 21.1038 7.06124ZM21.9521 11.4201V14.7515L21.7855 14.7506C21.3624 14.7482 19.7294 14.6203 19.0741 14.5383C18.1157 14.4182 16.6202 14.136 16.6202 14.0752C16.6202 14.0488 16.7294 13.7532 16.8628 13.4183C17.8125 11.0353 19.2105 9.23917 20.6938 8.49637C21.0846 8.30066 21.6608 8.10393 21.8764 8.0926C21.9361 8.08945 21.9521 8.79318 21.9521 11.4201ZM23.5665 8.21659C24.0871 8.37698 24.3526 8.51067 24.9035 8.88997C26.1112 9.72144 27.272 11.3679 28.0968 13.4195C28.2488 13.7975 28.3667 14.1114 28.3588 14.117C28.3508 14.1226 28.0444 14.1846 27.6778 14.2548C26.4409 14.4915 25.1827 14.6395 23.694 14.7234L22.9821 14.7635V11.4261C22.9821 8.61182 22.9954 8.0886 23.0666 8.0886C23.1131 8.0886 23.338 8.1462 23.5665 8.21659ZM18.8014 8.5435C18.8014 8.56046 18.6105 8.78021 18.3772 9.03177C17.2575 10.239 16.3074 11.7922 15.7703 13.2933C15.6613 13.5979 15.539 13.843 15.4959 13.843C15.2006 13.843 12.2504 12.7029 12.0564 12.5138C11.9935 12.4525 13.0769 11.4739 13.8179 10.9225C15.0245 10.0248 16.4691 9.26921 17.8926 8.79118C18.7319 8.50933 18.8014 8.49038 18.8014 8.5435ZM27.2537 8.85878C29.1684 9.50884 31.3192 10.842 32.639 12.1968L32.9348 12.5006L32.5592 12.6901C31.6396 13.1542 29.5031 13.9088 29.4056 13.804C29.3791 13.7754 29.2963 13.5749 29.2216 13.3584C29.0064 12.7341 28.3 11.3189 27.9066 10.7235C27.49 10.0929 26.9718 9.43203 26.4672 8.88755C26.0508 8.43822 26.0184 8.43937 27.2537 8.85878ZM12.1433 13.6853C12.9881 14.0888 13.9647 14.4687 14.7419 14.6962C14.9919 14.7694 15.2059 14.8372 15.2176 14.8469C15.2292 14.8566 15.1404 15.2548 15.0202 15.7318C14.5934 17.4256 14.3153 19.3299 14.2232 21.1873L14.182 22.0202H11.0915H8.00088L8.04487 21.4002C8.20725 19.1101 8.98249 16.7802 10.2471 14.7818C10.4981 14.3851 11.2815 13.2978 11.3163 13.2978C11.3249 13.2978 11.6971 13.4722 12.1433 13.6853ZM33.934 13.6764C34.8635 14.855 35.6786 16.3734 36.2019 17.9013C36.5691 18.9732 36.825 20.2793 36.9406 21.6719L36.9695 22.0202H33.8536H30.7376V21.5477C30.7376 20.5283 30.5626 18.8427 30.3088 17.4167C30.2046 16.8313 29.8481 15.2852 29.7327 14.9181C29.7111 14.8494 29.7314 14.8121 29.7904 14.8121C30.1148 14.8121 32.562 13.8682 33.2294 13.4856C33.4085 13.383 33.5731 13.2987 33.5952 13.2983C33.6173 13.298 33.7698 13.4682 33.934 13.6764ZM16.941 15.2336C18.2343 15.4996 19.6583 15.6742 21.1796 15.7533L21.9521 15.7934V18.9068V22.0202H18.5916H15.2311L15.2622 21.3085C15.3343 19.6616 15.5974 17.7794 15.9629 16.2961C16.2362 15.1868 16.2575 15.115 16.3129 15.115C16.3413 15.115 16.6239 15.1683 16.941 15.2336ZM28.938 16.0387C29.3599 17.7617 29.5994 19.395 29.6795 21.0965L29.7231 22.0202H26.3526H22.9821V18.908V15.7959L23.7546 15.755C25.2743 15.6747 26.9222 15.4749 28.011 15.2389C28.2943 15.1775 28.5679 15.1245 28.6189 15.1211C28.6895 15.1164 28.766 15.3363 28.938 16.0387ZM14.2469 24.1866C14.3659 26.0998 14.596 27.6275 15.0193 29.314C15.1357 29.7775 15.2095 30.176 15.1833 30.1996C15.1572 30.2231 14.9313 30.3018 14.6814 30.3746C13.9291 30.5936 12.9401 30.9777 12.1024 31.3762L11.3109 31.7528L10.9421 31.2628C9.25302 29.0185 8.24215 26.3526 8.04039 23.6102L7.99912 23.0499H11.0877H14.1763L14.2469 24.1866ZM21.9521 26.1694V29.2888H21.4165C20.3825 29.2888 18.2382 29.542 16.8628 29.8265C16.5464 29.892 16.2781 29.9362 16.2667 29.9248C16.2553 29.9133 16.1669 29.5952 16.0705 29.2179C15.6515 27.5792 15.3274 25.3922 15.2663 23.7919L15.2381 23.0499H18.5951H21.9521V26.1694ZM29.6834 23.8828C29.5991 25.6144 29.2987 27.6639 28.9175 29.1071C28.8163 29.4903 28.723 29.8347 28.7101 29.8725C28.6933 29.9218 28.5259 29.9081 28.1216 29.8243C26.8512 29.5612 24.8049 29.3229 23.3759 29.2716L23.0124 29.2586L22.9967 26.1542L22.981 23.0499H26.3525H29.7239L29.6834 23.8828ZM36.9386 23.4285C36.856 24.5362 36.5767 26.0134 36.2715 26.9568C35.7894 28.4468 34.9266 30.0911 33.9942 31.2965L33.6361 31.7596L32.7775 31.3478C31.9514 30.9514 30.7347 30.4836 30.1014 30.3189C29.9347 30.2756 29.7801 30.2237 29.7576 30.2037C29.7351 30.1836 29.7831 29.9218 29.8642 29.622C30.3489 27.8309 30.7376 25.1179 30.7376 23.5257V23.0499H33.8522H36.9668L36.9386 23.4285ZM21.9521 33.6485V36.9785L21.7552 36.9417C21.3829 36.8722 20.6489 36.559 20.2556 36.3019C19.7901 35.9975 19.03 35.2862 18.6218 34.7731C18.1664 34.2006 17.6277 33.298 17.2379 32.4544C16.8165 31.5427 16.5938 30.9911 16.6316 30.9533C16.6755 30.9095 17.7435 30.701 18.4985 30.5889C19.4719 30.4444 20.664 30.335 21.3613 30.3261L21.9521 30.3186V33.6485ZM24.9061 30.4097C25.4477 30.4595 26.1566 30.5406 26.4814 30.59C27.1154 30.6864 28.3216 30.9115 28.3477 30.9383C28.3793 30.9708 27.8418 32.2402 27.5613 32.7956C26.3522 35.19 24.8947 36.5612 23.1487 36.947L22.9821 36.9838V33.6512V30.3186L23.4517 30.3188C23.7099 30.3189 24.3644 30.3598 24.9061 30.4097ZM30.3437 31.4741C31.3012 31.7806 32.9327 32.4875 32.9015 32.5823C32.8891 32.6199 32.6084 32.8939 32.2778 33.1912C30.5958 34.704 28.7765 35.736 26.63 36.3951C26.0509 36.5728 26.0471 36.5944 26.7249 35.8563C27.7698 34.7184 28.7974 32.981 29.2555 31.5778C29.3865 31.1766 29.3925 31.1665 29.4823 31.1969C29.5229 31.2107 29.9105 31.3354 30.3437 31.4741ZM15.7386 31.6966C15.9917 32.4201 16.622 33.6729 17.0871 34.3769C17.5076 35.0133 18.2547 35.9465 18.6117 36.2811C18.7161 36.3789 18.8014 36.479 18.8014 36.5034C18.8014 36.5638 17.938 36.2964 17.1718 35.9987C15.854 35.4867 14.5091 34.7027 13.3787 33.7875C12.7667 33.2921 12.03 32.5837 12.0795 32.5382C12.3331 32.3048 15.0787 31.2378 15.446 31.2299C15.5524 31.2276 15.6026 31.3076 15.7386 31.6966Z" stroke="#A4A4A4" stroke-width="0.4" mask="url(#path-1-outside-1_2742_56511)"/>
</svg>
