<svg width="44" height="44" viewBox="0 0 44 44" fill="none" xmlns="http://www.w3.org/2000/svg">
<path fill-rule="evenodd" clip-rule="evenodd" d="M9.89003 13.0721C9.42969 13.1774 9.08508 13.3573 8.73797 13.6734C8.38046 13.9991 8.16434 14.3577 8.06478 14.7906C7.97774 15.1689 7.97873 28.8349 8.06582 29.2069C8.26609 30.0624 9.03183 30.763 9.96105 30.9409C10.3734 31.0199 33.6289 31.0196 34.039 30.9406C34.9668 30.762 35.7416 30.0537 35.9356 29.2069C36.0223 28.828 36.0211 15.1616 35.9342 14.7906C35.7327 13.9296 34.9755 13.2369 34.039 13.0568C33.597 12.9718 10.2639 12.9866 9.89003 13.0721ZM27.8772 19.3526C24.9605 22.0212 22.5077 24.2369 22.4265 24.2763C22.3452 24.3158 22.1534 24.3481 22 24.3481C21.8467 24.3481 21.6548 24.3158 21.5736 24.2763C21.4924 24.2369 19.0396 22.0212 16.1228 19.3526L10.8197 14.5007H22H33.1804L27.8772 19.3526ZM13.184 25.2353L9.644 28.472V21.9987V15.5255L13.184 18.7621L16.724 21.9987L13.184 25.2353ZM34.3561 22.0112V28.472L30.8161 25.2354L27.2762 21.9988L30.8023 18.7746C32.7416 17.0013 34.3346 15.5504 34.3422 15.5504C34.3498 15.5504 34.3561 18.4578 34.3561 22.0112ZM19.1528 24.2646C20.3283 25.328 20.4801 25.448 20.8764 25.6267L21.3109 25.8227H21.9972C22.678 25.8227 22.6868 25.8212 23.1151 25.6343C23.515 25.4597 23.6429 25.3587 24.8527 24.2613L26.1586 23.0767L29.6695 26.2867L33.1805 29.4968H22.0001H10.8198L14.3185 26.2976C16.2428 24.5381 17.8277 23.0984 17.8405 23.0984C17.8533 23.0984 18.4438 23.6232 19.1528 24.2646Z" fill="#FF9933"/>
</svg>
