<svg width="44" height="44" viewBox="0 0 44 44" fill="none" xmlns="http://www.w3.org/2000/svg">
<path fill-rule="evenodd" clip-rule="evenodd" d="M10.3365 9.04878C7.96675 9.46483 5.83895 11.0286 4.78203 13.1308C4.1967 14.2951 3.99116 15.1906 4.00029 16.5378C4.00582 17.3502 4.04143 17.658 4.1976 18.2421C4.57575 19.6569 5.21898 20.7417 6.30364 21.794C6.95367 22.4246 6.99481 22.4831 7.07828 22.8956C7.20206 23.5075 7.60872 24.0698 8.15748 24.388L8.58687 24.6371V29.379V34.121L9.54363 35.0605L10.5005 36H11.6123H12.7241L13.6187 35.1371C14.1107 34.6625 14.5598 34.1678 14.6166 34.0378C14.7009 33.8451 14.72 32.9494 14.72 29.1802V24.5589L14.8945 24.5159C15.1693 24.4482 15.7152 23.9327 15.9382 23.5304C16.0502 23.3284 16.1633 23.0085 16.1897 22.8194C16.2336 22.5048 16.2999 22.4148 16.9661 21.765C18.0706 20.6876 18.6748 19.6754 19.0338 18.3012C19.9296 14.8716 18.2424 11.3079 14.9817 9.7423C13.8283 9.18847 13.1478 9.03027 11.803 9.00339C11.2065 8.99149 10.5466 9.01191 10.3365 9.04878ZM12.6595 10.5537C15.618 11.0602 17.7134 13.4912 17.7225 16.4276C17.7255 17.4163 17.5751 18.1181 17.1818 18.9499C16.6878 19.9949 16.3496 20.3969 15.0247 21.5142C14.7909 21.7114 14.7634 21.7779 14.7101 22.2737C14.6587 22.7508 14.6236 22.8418 14.4228 23.0191L14.194 23.221H11.6091H9.02411L8.80549 23.0064C8.62299 22.8272 8.58687 22.7318 8.58687 22.4298C8.58687 21.8876 8.46525 21.6312 8.0868 21.3756C7.23482 20.8 6.34433 19.6962 5.94822 18.7247C5.52623 17.6894 5.40671 16.3458 5.63753 15.2311C6.12354 12.8845 8.10191 10.9857 10.5054 10.5593C11.2876 10.4206 11.8735 10.4191 12.6595 10.5537ZM10.4193 12.1191C9.11304 12.5059 8.07161 13.365 7.49578 14.531C7.25487 15.0188 7.0162 15.9329 7.0162 16.3679C7.0162 16.6479 7.2254 17.0215 7.43467 17.1151C7.68344 17.2264 15.6351 17.234 15.846 17.1231C16.3847 16.8401 16.3056 15.5954 15.6707 14.3652C15.1955 13.4444 14.312 12.6746 13.2615 12.2662C12.7282 12.0589 12.5656 12.0311 11.7656 12.01C11.062 11.9914 10.7711 12.015 10.4193 12.1191ZM21.8196 12.9334L21.601 13.1481V16.4643V19.7805L21.8196 19.9952L22.0382 20.2099H30.7474C39.4078 20.2099 39.4576 20.2091 39.6511 20.0597C39.758 19.977 39.8801 19.787 39.9225 19.6374C40.0258 19.272 40.0258 13.6567 39.9225 13.2913C39.8801 13.1416 39.758 12.9517 39.6511 12.869C39.4576 12.7196 39.4078 12.7188 30.7474 12.7188H22.0382L21.8196 12.9334ZM12.3669 13.5672C13.188 13.7771 13.8877 14.3307 14.2883 15.0874C14.658 15.7857 14.8902 15.7299 11.616 15.7299C9.25882 15.7299 8.73646 15.7121 8.73646 15.6315C8.73646 15.3977 9.21723 14.6189 9.55059 14.3128C10.3676 13.5625 11.3408 13.3048 12.3669 13.5672ZM38.4296 16.4643V18.741H30.7632H23.0969V16.4643V14.1876H30.7632H38.4296V16.4643ZM13.1493 25.865V26.9666H12.7753H12.4014V27.7377V28.5089H12.7753H13.1493V29.6472V30.7856H12.7753H12.4014V31.52V32.2544H12.7753H13.1493V32.8622V33.4699L12.6052 34.0005C12.0636 34.5289 12.0595 34.5312 11.6533 34.5312H11.2453L10.664 33.9637L10.0827 33.3962V29.0797V24.7633H11.616H13.1493V25.865ZM21.8196 24.978L21.601 25.1927V28.4713C21.601 30.5796 21.6285 31.8004 21.678 31.8913C21.8835 32.2683 21.5335 32.2544 30.8242 32.2544C39.4073 32.2544 39.4576 32.2536 39.6511 32.1042C39.758 32.0216 39.8801 31.8316 39.9225 31.682C40.0258 31.3165 40.0258 25.7013 39.9225 25.3358C39.8801 25.1862 39.758 24.9962 39.6511 24.9135C39.4576 24.7641 39.4078 24.7633 30.7474 24.7633H22.0382L21.8196 24.978ZM38.4296 28.5089V30.7856H30.7632H23.0969V28.5089V26.2322H30.7632H38.4296V28.5089Z" fill="#FF9933"/>
</svg>
