<svg width="44" height="44" viewBox="0 0 44 44" fill="none" xmlns="http://www.w3.org/2000/svg">
<path fill-rule="evenodd" clip-rule="evenodd" d="M21.1488 11.9757C22.4082 11.4645 23.4685 11.0349 23.5048 11.021C23.7149 10.9409 24.0548 11.0563 26.2834 11.9645C28.7967 12.9887 28.8429 13.0137 28.9581 13.4062C28.9933 13.5263 29.0121 13.9203 29.0121 14.5408V15.4914H30.422V14.5408C30.422 13.9203 30.4407 13.5263 30.476 13.4062C30.5911 13.014 30.6376 12.9889 33.1546 11.9606C35.1834 11.1318 35.4963 11.016 35.709 11.016C35.9216 11.016 36.2345 11.1318 38.2633 11.9606C40.7803 12.9889 40.8269 13.014 40.9419 13.4062C41.0194 13.6699 41.0194 19.112 40.9419 19.3757C40.8283 19.7629 40.7534 19.8045 38.5834 20.6864L36.5911 21.496V23.52L38.5834 24.3296C40.7534 25.2115 40.8283 25.2531 40.9419 25.6403C41.0194 25.904 41.0194 31.3461 40.9419 31.6098C40.8269 32.0021 40.7803 32.0272 38.2633 33.0555C36.2345 33.8843 35.9216 34 35.709 34C35.4963 34 35.1834 33.8843 33.1546 33.0555C30.6376 32.0272 30.5911 32.0021 30.476 31.6098C30.4407 31.4897 30.422 31.0957 30.422 30.4752V29.5246H29.0121V30.4752C29.0121 31.0957 28.9933 31.4897 28.9581 31.6098C28.843 32.0021 28.7965 32.0272 26.2794 33.0555C24.2507 33.8843 23.9377 34 23.7251 34C23.5125 34 23.1995 33.8843 21.1708 33.0555C18.6537 32.0272 18.6072 32.0021 18.4921 31.6098C18.4534 31.478 18.4341 30.0515 18.4341 28.6251C18.4341 27.1986 18.4534 25.7722 18.4921 25.6403C18.6058 25.2531 18.6806 25.2115 20.8507 24.3296L22.8429 23.52V21.496L20.8507 20.6864C18.6806 19.8045 18.6058 19.7629 18.4921 19.3757C18.4534 19.2439 18.4341 17.8174 18.4341 16.3909C18.4341 14.9645 18.4534 13.538 18.4921 13.4062C18.6074 13.0133 18.6543 12.9881 21.1488 11.9757ZM25.707 13.6922C25.707 13.6799 25.266 13.4919 24.7271 13.2746C24.1881 13.0572 23.7273 12.8811 23.7031 12.8833C23.6289 12.8899 21.7434 13.6682 21.7433 13.6922C21.7432 13.7046 22.1891 13.8954 22.7341 14.1163L23.7251 14.5178L24.7161 14.1163C25.2611 13.8954 25.707 13.7046 25.707 13.6922ZM37.6909 13.6922C37.6909 13.6799 37.2499 13.4919 36.7109 13.2746C36.172 13.0572 35.7112 12.8811 35.6869 12.8833C35.6128 12.8899 33.7272 13.6682 33.7271 13.6922C33.7271 13.7046 34.173 13.8954 34.718 14.1163L35.709 14.5178L36.6999 14.1163C37.2449 13.8954 37.6909 13.7046 37.6909 13.6922ZM23.7251 16.3685C23.5155 16.3685 23.264 16.2788 21.8636 15.705C20.973 15.3402 20.2345 15.0416 20.2224 15.0416C20.2103 15.0416 20.2007 15.8158 20.2009 16.762L20.2014 18.4824L23.7251 19.9161L27.2488 18.4824L27.2493 16.762C27.2495 15.8158 27.2399 15.0416 27.2278 15.0416C27.2157 15.0416 26.4772 15.3402 25.5866 15.705C24.1862 16.2788 23.9347 16.3685 23.7251 16.3685ZM35.709 16.3685C35.4994 16.3685 35.2479 16.2788 33.8475 15.705C32.9569 15.3402 32.2184 15.0416 32.2063 15.0416C32.1942 15.0416 32.1845 15.8158 32.1848 16.762L32.1853 18.4824L35.709 19.9161L39.2327 18.4824L39.2331 16.762C39.2334 15.8158 39.2238 15.0416 39.2116 15.0416C39.1996 15.0416 38.4611 15.3402 37.5705 15.705C36.17 16.2788 35.9185 16.3685 35.709 16.3685ZM30.476 19.3757C30.4407 19.2556 30.422 18.8616 30.422 18.2411V17.2905H29.0121V18.2411C29.0121 18.8616 28.9933 19.2556 28.9581 19.3757C28.8445 19.7629 28.7696 19.8045 26.5995 20.6864L24.6073 21.496V23.52L26.5995 24.3296C28.7696 25.2115 28.8445 25.2531 28.9581 25.6403C28.9933 25.7604 29.0121 26.1545 29.0121 26.7749V27.7255H30.422V26.7749C30.422 26.1545 30.4407 25.7604 30.476 25.6403C30.5896 25.2531 30.6645 25.2115 32.8346 24.3296L34.8268 23.52V21.496L32.8346 20.6864C30.6645 19.8045 30.5896 19.7629 30.476 19.3757ZM25.707 25.9264C25.707 25.914 25.266 25.726 24.7271 25.5087C24.1881 25.2914 23.7273 25.1153 23.7031 25.1174C23.6289 25.124 21.7434 25.9024 21.7433 25.9264C21.7432 25.9387 22.1891 26.1295 22.7341 26.3504L23.7251 26.7519L24.7161 26.3504C25.2611 26.1295 25.707 25.9387 25.707 25.9264ZM37.6909 25.9264C37.6909 25.914 37.2499 25.726 36.7109 25.5087C36.172 25.2914 35.7112 25.1153 35.6869 25.1174C35.6128 25.124 33.7272 25.9024 33.7271 25.9264C33.7271 25.9387 34.173 26.1295 34.718 26.3504L35.709 26.7519L36.6999 26.3504C37.2449 26.1295 37.6909 25.9387 37.6909 25.9264ZM23.7251 28.6026C23.5155 28.6026 23.264 28.5129 21.8636 27.9392C20.973 27.5742 20.2345 27.2757 20.2224 27.2757C20.2103 27.2757 20.2007 28.0499 20.2009 28.9961L20.2014 30.7166L23.7251 32.1502L27.2488 30.7166L27.2493 28.9961C27.2495 28.0499 27.2399 27.2757 27.2278 27.2757C27.2157 27.2757 26.4772 27.5742 25.5866 27.9392C24.1862 28.5129 23.9347 28.6026 23.7251 28.6026ZM35.709 28.6026C35.4994 28.6026 35.2479 28.5129 33.8475 27.9392C32.9569 27.5742 32.2184 27.2757 32.2063 27.2757C32.1942 27.2757 32.1845 28.0499 32.1848 28.9961L32.1853 30.7166L35.709 32.1502L39.2327 30.7166L39.2331 28.9961C39.2334 28.0499 39.2238 27.2757 39.2116 27.2757C39.1996 27.2757 38.4611 27.5742 37.5705 27.9392C36.17 28.5129 35.9185 28.6026 35.709 28.6026Z" fill="#FF9933"/>
<path d="M17.2317 22.713C17.4611 23.0046 17.5983 23.3749 17.5983 23.7778V28.037H18.4341V28.6251V29.7407H17.5983C16.6751 29.7407 15.9267 28.978 15.9267 28.037V23.7778H13.1935V25.4815C13.1935 26.4224 12.4452 27.1852 11.522 27.1852H5.67155C4.74838 27.1852 4 26.4224 4 25.4815V19.5185C4 18.5776 4.74838 17.8148 5.67155 17.8148H11.522C12.4452 17.8148 13.1935 18.5776 13.1935 19.5185V21.6481H15.9267V17.3889C15.9267 16.448 16.6751 15.6852 17.5983 15.6852H18.4341V16.3909V17.3889H17.5983V21.6481C17.5983 22.0511 17.4611 22.4213 17.2317 22.713Z" fill="#FF9933"/>
</svg>
