<svg width="44" height="44" viewBox="0 0 44 44" fill="none" xmlns="http://www.w3.org/2000/svg">
<path fill-rule="evenodd" clip-rule="evenodd" d="M17.8927 6.10829C16.1231 6.53886 14.6423 8.00126 14.1645 9.79006C13.9947 10.4261 13.9902 11.6386 14.1554 12.2722C14.3861 13.157 14.8138 13.9055 15.4671 14.5675C15.7929 14.8975 16.1372 15.2155 16.2323 15.2742C16.4022 15.379 16.3965 15.3843 15.9027 15.5789C15.6262 15.6878 15.1029 15.9699 14.7396 16.2058C12.5272 17.6426 11.125 20.0902 11.0586 22.6312C11.0449 23.1536 11.0605 23.2277 11.2197 23.3986L11.3959 23.5876H19.0762H26.7565L26.9328 23.3986C27.0902 23.2296 27.1076 23.1509 27.0958 22.6588C27.0239 19.6742 25.0794 16.8095 22.3021 15.5967L21.7542 15.3574L22.0106 15.1983C22.4901 14.9007 23.2739 13.9752 23.5832 13.3413C23.9929 12.5015 24.1214 11.9465 24.1177 11.0311C24.1141 10.147 23.9819 9.56331 23.6228 8.8473C22.9291 7.46396 21.7662 6.50404 20.3405 6.13786C19.6735 5.96659 18.532 5.9528 17.8927 6.10829ZM20.3455 7.44147C21.8873 8.00455 22.8876 9.43723 22.8774 11.0676C22.8566 14.3709 18.9691 16.1122 16.537 13.9076C15.7068 13.1551 15.2821 12.1992 15.2751 11.0676C15.264 9.30714 16.3768 7.8535 18.1312 7.33657C18.6289 7.18991 19.8099 7.2459 20.3455 7.44147ZM19.9978 16.2186C22.9444 16.6194 25.3813 19.0458 25.8038 21.9998L25.8533 22.3466H19.0845H12.3156L12.3161 22.1823C12.3164 22.092 12.3797 21.7553 12.4568 21.4341C13.2839 17.9882 16.5253 15.7465 19.9978 16.2186Z" fill="#A4A4A4"/>
<path fill-rule="evenodd" clip-rule="evenodd" d="M27.8414 26.1312C20.4543 26.1002 6.87278 26.1209 6.51716 26.1898C5.57338 26.3727 4.68936 27.0533 4.24918 27.9358L4 28.4355V32.0966V35.7577L4.21136 36.1826C4.53717 36.8378 5.07853 37.3728 5.74437 37.6976L6.31404 37.9755L19.3843 37.9948C31.1395 38.0122 32.4956 38.0023 32.8636 37.8967C33.6939 37.6585 34.4653 36.9978 34.8756 36.1734L35.0825 35.7577V32.0966V29.7174C34.7831 29.7547 34.4779 29.774 34.1683 29.774C34.0564 29.774 33.9451 29.7714 33.8345 29.7665C33.842 30.2673 33.8434 30.9911 33.8434 32.0612C33.8434 35.1756 33.8369 35.3283 33.6909 35.6468C33.486 36.0935 33.2108 36.3695 32.7607 36.5795L32.3862 36.7542H19.5413H6.69632L6.31763 36.5802C5.87476 36.3767 5.44582 35.915 5.32277 35.5094C5.26248 35.3108 5.23634 34.2403 5.23746 32.0156C5.23896 29.0693 5.25027 28.7841 5.37595 28.5109C5.62004 27.9806 6.11444 27.587 6.71264 27.4468C6.87525 27.4087 12.4046 27.3854 19.6911 27.392L28.7752 27.4003C28.4205 27.0133 28.1069 26.588 27.8414 26.1312ZM9.87947 30.3246C9.87947 29.6293 9.95422 29.3246 10.1633 29.1678C10.3671 29.0151 10.7829 29.0456 10.9794 29.2278C11.1389 29.3757 11.1527 29.4495 11.1527 30.1519C11.1527 30.7137 11.1774 30.9151 11.2464 30.9145C11.2979 30.914 11.5928 30.7647 11.9017 30.5826C12.5676 30.1902 12.8032 30.1673 13.1058 30.466C13.5274 30.8821 13.3693 31.2025 12.4949 31.704C12.1686 31.8911 11.9025 32.0647 11.9033 32.0896C11.9042 32.1146 12.1883 32.2972 12.5347 32.4954C13.2031 32.8779 13.3746 33.0959 13.2849 33.4491C13.2583 33.554 13.1703 33.6988 13.0896 33.7709C12.8441 33.9902 12.5073 33.9317 11.8449 33.5546C11.5092 33.3634 11.2162 33.2071 11.1937 33.2071C11.1712 33.2071 11.1527 33.5579 11.1527 33.9867C11.1527 34.7159 11.1408 34.7781 10.9689 34.9478C10.7308 35.1828 10.4017 35.184 10.1271 34.9509C9.9271 34.7812 9.91512 34.7345 9.87947 33.9925L9.84202 33.2126L9.24284 33.5566C8.5236 33.9696 8.22505 34.0026 7.95984 33.6983C7.73275 33.4377 7.72931 33.1036 7.95145 32.8896C8.04448 32.7999 8.36391 32.5935 8.66126 32.4308C8.9586 32.2682 9.20269 32.1125 9.20367 32.0848C9.20464 32.0572 8.95366 31.8974 8.64598 31.7298C7.85356 31.298 7.65066 31.0018 7.86944 30.5962C8.11495 30.1413 8.44196 30.1459 9.25025 30.6155L9.87947 30.981V30.3246ZM18.8797 30.1793C18.9062 29.5273 18.9301 29.4218 19.0887 29.2552C19.2172 29.1203 19.3451 29.067 19.5413 29.067C19.7374 29.067 19.8654 29.1203 19.9938 29.2552C20.1524 29.4218 20.1763 29.5273 20.2028 30.1793C20.2193 30.5841 20.2509 30.9153 20.2729 30.9153C20.295 30.9153 20.5759 30.7656 20.8973 30.5826C21.5857 30.1907 21.794 30.1704 22.0936 30.466C22.5171 30.8841 22.3309 31.2491 21.4488 31.7298C21.1412 31.8974 20.8903 32.0572 20.8912 32.0848C20.8922 32.1125 21.1644 32.2848 21.4961 32.4678C22.3132 32.9185 22.5003 33.279 22.135 33.6983C21.8665 34.0063 21.5595 33.9726 20.8456 33.5568L20.2528 33.2117L20.2112 33.9956C20.1719 34.7354 20.1579 34.7894 19.9635 34.9544C19.8498 35.051 19.6607 35.1293 19.5413 35.1293C19.4218 35.1293 19.2328 35.051 19.119 34.9544C18.9246 34.7894 18.9106 34.7354 18.8714 33.9956L18.8297 33.2117L18.2369 33.5568C17.523 33.9726 17.216 34.0063 16.9476 33.6983C16.5818 33.2785 16.7694 32.9182 17.588 32.4678C17.9206 32.2848 18.1928 32.1146 18.193 32.0896C18.193 32.0647 17.9262 31.8911 17.5999 31.704C16.7256 31.2025 16.5675 30.8821 16.989 30.466C17.2885 30.1704 17.4969 30.1907 18.1852 30.5826C18.5066 30.7656 18.7876 30.9153 18.8097 30.9153C18.8317 30.9153 18.8632 30.5841 18.8797 30.1793ZM27.9298 30.1622C27.9298 29.4909 27.9475 29.3907 28.0926 29.2381C28.2008 29.1246 28.3408 29.067 28.5095 29.067C29.0598 29.067 29.2031 29.3282 29.2031 30.3308V30.981L29.8323 30.6155C30.6406 30.1459 30.9676 30.1413 31.2131 30.5962C31.4309 30.9998 31.2398 31.281 30.4411 31.7321C30.1309 31.9073 29.8774 32.0696 29.8777 32.0928C29.8779 32.1161 30.1216 32.266 30.4191 32.4259C30.7167 32.5859 31.0366 32.7923 31.1302 32.8847C31.3529 33.1045 31.3499 33.4375 31.1227 33.6983C30.8575 34.0026 30.5589 33.9696 29.8397 33.5566L29.2405 33.2126L29.2031 33.9925C29.1674 34.7345 29.1554 34.7812 28.9555 34.9509C28.6809 35.184 28.3517 35.1828 28.1137 34.9478C27.9417 34.7781 27.9298 34.7159 27.9298 33.9867C27.9298 33.5579 27.9114 33.2071 27.8888 33.2071C27.8664 33.2071 27.5733 33.3634 27.2376 33.5546C26.5733 33.9328 26.2385 33.9902 25.9904 33.7687C25.9083 33.6953 25.8202 33.5414 25.7947 33.4266C25.7165 33.0753 25.9155 32.831 26.5757 32.4678C26.9084 32.2848 27.1805 32.1131 27.1807 32.0862C27.1808 32.0592 26.9134 31.8849 26.5864 31.6987C25.7124 31.2011 25.5548 30.8824 25.9767 30.466C26.2779 30.1687 26.499 30.1899 27.1887 30.5826C27.5101 30.7656 27.8083 30.9153 27.8514 30.9153C27.9009 30.9153 27.9298 30.6373 27.9298 30.1622Z" fill="#A4A4A4"/>
<path d="M29.413 19.5031L29.4974 19.5567L28.6083 23.1334C28.7794 24.4111 29.3212 25.5197 30.2103 26.4087C31.0994 27.2976 32.2082 27.8394 33.486 28.0104C33.663 28.0341 33.9526 28.0423 34.2383 28.0379C34.5241 28.0336 34.8156 28.0165 34.9965 27.9874C35.5954 27.8911 36.0849 27.736 36.6242 27.4715C37.2129 27.1827 37.6319 26.8812 38.1119 26.4012L38.0412 26.3305L38.1119 26.4012C38.5919 25.9213 38.8936 25.5023 39.1824 24.9137C39.4469 24.3745 39.602 23.885 39.6983 23.2863L39.5996 23.2704L39.6983 23.2863C39.7274 23.1053 39.7445 22.8139 39.7489 22.5281C39.7532 22.2424 39.7451 21.9529 39.7214 21.7759C39.5503 20.4983 39.0084 19.3896 38.1194 18.5007C37.2366 17.6179 36.1098 17.0648 34.8648 16.9026L34.8648 16.9026C34.7389 16.8862 34.4964 16.8751 34.2602 16.8708C34.024 16.8665 33.7834 16.8687 33.6613 16.8806C32.5838 16.9856 31.5851 17.384 30.7117 18.0565C30.2833 18.3864 29.7325 19.0006 29.413 19.5031ZM34.7874 18.0231L34.8019 17.9243L34.7874 18.0231C35.5717 18.1385 36.255 18.4215 36.8637 18.8823L36.9241 18.8026L36.8637 18.8823L36.908 18.9158L33.7651 22.0571L30.6235 25.1971L30.5716 25.1261C30.209 24.6301 29.9689 24.1255 29.8257 23.5608C29.6586 22.9015 29.6478 22.1362 29.7963 21.4674L29.6987 21.4457L29.7963 21.4674C30.1628 19.8167 31.5241 18.4554 33.1776 18.0865C33.6714 17.9763 34.3015 17.9516 34.7874 18.0231ZM31.493 26.0474L31.422 25.9955L34.5624 22.8544L37.7042 19.7119L37.7377 19.7562L37.8174 19.6958L37.7377 19.7562C37.7923 19.8283 37.8924 19.9727 37.959 20.0758C38.5698 21.0207 38.7882 22.2945 38.5334 23.4419C38.2025 24.9322 37.0592 26.1998 35.5984 26.6946C35.1228 26.8558 34.6778 26.927 34.1442 26.9269C33.1834 26.9266 32.292 26.6313 31.493 26.0474L31.434 26.1281L31.493 26.0474Z" fill="#A4A4A4" stroke="#A4A4A4" stroke-width="0.2"/>
</svg>
