<svg width="44" height="44" viewBox="0 0 44 44" fill="none" xmlns="http://www.w3.org/2000/svg">
<path fill-rule="evenodd" clip-rule="evenodd" d="M10.1496 5.71961C10.5921 4.42959 11.7764 3.415 13.1989 3.10723C13.58 3.02474 15.2535 3.00541 22.4278 3.0004C28.0445 2.99654 31.3486 3.02089 31.6298 3.06813C33.0918 3.31405 34.3927 4.38504 34.8504 5.71961C34.9936 6.1369 35 6.8201 35 21.5987C35 36.3773 34.9936 37.0605 34.8504 37.4778C34.3927 38.8124 33.0918 39.8833 31.6298 40.1293C31.3499 40.1763 28.0336 40.2027 22.4686 40.2019C15.0657 40.2011 13.6688 40.1846 13.2362 40.0936C11.7805 39.7873 10.598 38.7853 10.1496 37.4778C10.0064 37.0605 10 36.3773 10 21.5987C10 6.8201 10.0064 6.1369 10.1496 5.71961ZM33.1651 5.9478C32.9319 5.39185 32.4687 4.95116 31.8492 4.69586L31.3355 4.48416L22.7443 4.47341C18.0191 4.46752 13.9857 4.48853 13.7811 4.51999C12.895 4.65655 12.1451 5.20806 11.8329 5.95274C11.6914 6.29017 11.6694 6.51901 11.6694 7.64821V8.95357H22.5H33.3306V7.64821C33.3306 6.51356 33.309 6.29111 33.1651 5.9478ZM20.0308 6.86247C19.9729 6.6044 20.2026 6.18254 20.4642 6.06648C20.7507 5.9393 24.2493 5.9393 24.5358 6.06648C24.7974 6.18254 25.0271 6.6044 24.9692 6.86247C24.9448 6.9714 24.8322 7.14306 24.7192 7.244L24.5136 7.42743H22.5H20.4864L20.2808 7.244C20.1678 7.14306 20.0552 6.9714 20.0308 6.86247ZM33.3306 32.7904V21.5987V10.407H22.5H11.6694V21.5987V32.7904H22.5H33.3306ZM33.1651 37.2496C33.309 36.9063 33.3306 36.6838 33.3306 35.5492V34.2438H22.5H11.6694V35.5492C11.6694 36.6838 11.691 36.9063 11.8349 37.2496C12.0681 37.8055 12.5313 38.2462 13.1508 38.5015L13.6645 38.7132H22.5H31.3355L31.8492 38.5015C32.4687 38.2462 32.9319 37.8055 33.1651 37.2496ZM22.8954 37.1199C22.0594 37.5057 21.2623 36.5726 21.9237 35.9824C22.1104 35.8158 22.2347 35.77 22.5 35.77C23.3343 35.77 23.6303 36.7807 22.8954 37.1199ZM15.148 23.6062L14.4079 23.1039C14.3593 23.0729 14.3315 23.0295 14.3246 22.9736C14.3176 22.9178 14.328 22.8682 14.3558 22.8248C14.3558 22.8186 14.3732 22.8 14.4079 22.769L15.0855 22.2667L14.1995 22.2016C14.1786 22.1954 14.1613 22.1923 14.1474 22.1923C14.1404 22.1861 14.1335 22.183 14.1265 22.183C14.0709 22.1706 14.0258 22.1396 13.991 22.0899C13.9632 22.0341 13.9563 21.9783 13.9702 21.9225L14.2724 21.1318C14.2863 21.0822 14.3246 21.045 14.3871 21.0202C14.4496 20.9954 14.5052 20.9892 14.5539 21.0016C14.5608 21.0016 14.5886 21.0109 14.6373 21.0295L15.3773 21.4481L15.1689 20.6853C15.1619 20.6667 15.1584 20.6512 15.1584 20.6388V20.6109C15.1584 20.5613 15.1793 20.5148 15.221 20.4714C15.2696 20.428 15.3252 20.4062 15.3878 20.4062H16.3259C16.3884 20.4062 16.4405 20.428 16.4822 20.4714C16.5309 20.5148 16.5552 20.5613 16.5552 20.6109V20.6388C16.5552 20.6512 16.5517 20.6667 16.5448 20.6853L16.3363 21.4481L17.0868 21.0295C17.1285 21.0109 17.1563 21.0016 17.1702 21.0016C17.2258 20.9892 17.2813 20.9954 17.3369 21.0202C17.3995 21.045 17.4377 21.0822 17.4516 21.1318L17.7539 21.9225C17.7678 21.9783 17.7574 22.0341 17.7226 22.0899C17.6948 22.1396 17.6531 22.1706 17.5975 22.183C17.5906 22.183 17.5802 22.1861 17.5663 22.1923C17.5593 22.1923 17.5454 22.1954 17.5246 22.2016L16.6386 22.2667L17.3161 22.769C17.3508 22.8 17.3682 22.8186 17.3682 22.8248C17.403 22.8682 17.4169 22.9178 17.4099 22.9736C17.403 23.0295 17.3717 23.0729 17.3161 23.1039L16.5656 23.6062C16.51 23.631 16.4509 23.6403 16.3884 23.6341C16.3259 23.6279 16.2772 23.6031 16.2425 23.5597C16.2425 23.5473 16.239 23.538 16.2321 23.5318C16.2251 23.5256 16.2147 23.5132 16.2008 23.4946L15.8568 22.7597L15.5233 23.4946C15.5163 23.5132 15.5094 23.5256 15.5024 23.5318L15.4711 23.5597C15.4433 23.6031 15.3947 23.6279 15.3252 23.6341C15.2627 23.6403 15.2036 23.631 15.148 23.6062ZM21.718 23.6062L20.978 23.1039C20.9293 23.0729 20.9015 23.0295 20.8946 22.9736C20.8876 22.9178 20.8981 22.8682 20.9259 22.8248C20.9259 22.8186 20.9432 22.8 20.978 22.769L21.6555 22.2667L20.7695 22.2016C20.7487 22.1954 20.7313 22.1923 20.7174 22.1923C20.7104 22.1861 20.7035 22.183 20.6965 22.183C20.641 22.1706 20.5958 22.1396 20.561 22.0899C20.5332 22.0341 20.5263 21.9783 20.5402 21.9225L20.8425 21.1318C20.8564 21.0822 20.8946 21.045 20.9571 21.0202C21.0197 20.9954 21.0753 20.9892 21.1239 21.0016C21.1309 21.0016 21.1587 21.0109 21.2073 21.0295L21.9474 21.4481L21.7389 20.6853C21.7319 20.6667 21.7285 20.6512 21.7285 20.6388V20.6109C21.7285 20.5613 21.7493 20.5148 21.791 20.4714C21.8397 20.428 21.8952 20.4062 21.9578 20.4062H22.8959C22.9584 20.4062 23.0106 20.428 23.0522 20.4714C23.1009 20.5148 23.1252 20.5613 23.1252 20.6109V20.6388C23.1252 20.6512 23.1217 20.6667 23.1148 20.6853L22.9063 21.4481L23.6568 21.0295C23.6985 21.0109 23.7263 21.0016 23.7402 21.0016C23.7958 20.9892 23.8514 20.9954 23.907 21.0202C23.9695 21.045 24.0077 21.0822 24.0216 21.1318L24.3239 21.9225C24.3378 21.9783 24.3274 22.0341 24.2926 22.0899C24.2648 22.1396 24.2232 22.1706 24.1676 22.183C24.1606 22.183 24.1502 22.1861 24.1363 22.1923C24.1293 22.1923 24.1154 22.1954 24.0946 22.2016L23.2086 22.2667L23.8861 22.769C23.9209 22.8 23.9382 22.8186 23.9382 22.8248C23.973 22.8682 23.9869 22.9178 23.9799 22.9736C23.973 23.0295 23.9417 23.0729 23.8861 23.1039L23.1356 23.6062C23.08 23.631 23.021 23.6403 22.9584 23.6341C22.8959 23.6279 22.8473 23.6031 22.8125 23.5597C22.8125 23.5473 22.809 23.538 22.8021 23.5318C22.7951 23.5256 22.7847 23.5132 22.7708 23.4946L22.4268 22.7597L22.0933 23.4946C22.0863 23.5132 22.0794 23.5256 22.0724 23.5318L22.0412 23.5597C22.0134 23.6031 21.9647 23.6279 21.8952 23.6341C21.8327 23.6403 21.7736 23.631 21.718 23.6062ZM27.548 23.1039L28.2881 23.6062C28.3437 23.631 28.4027 23.6403 28.4653 23.6341C28.5348 23.6279 28.5834 23.6031 28.6112 23.5597L28.6425 23.5318C28.6494 23.5256 28.6564 23.5132 28.6633 23.4946L28.9969 22.7597L29.3408 23.4946C29.3547 23.5132 29.3652 23.5256 29.3721 23.5318C29.3791 23.538 29.3825 23.5473 29.3825 23.5597C29.4173 23.6031 29.4659 23.6279 29.5285 23.6341C29.591 23.6403 29.6501 23.631 29.7057 23.6062L30.4562 23.1039C30.5117 23.0729 30.543 23.0295 30.55 22.9736C30.5569 22.9178 30.543 22.8682 30.5083 22.8248C30.5083 22.8186 30.4909 22.8 30.4562 22.769L29.7786 22.2667L30.6646 22.2016C30.6855 22.1954 30.6994 22.1923 30.7063 22.1923C30.7202 22.1861 30.7306 22.183 30.7376 22.183C30.7932 22.1706 30.8349 22.1396 30.8627 22.0899C30.8974 22.0341 30.9078 21.9783 30.8939 21.9225L30.5917 21.1318C30.5778 21.0822 30.5395 21.045 30.477 21.0202C30.4214 20.9954 30.3658 20.9892 30.3102 21.0016C30.2963 21.0016 30.2685 21.0109 30.2268 21.0295L29.4764 21.4481L29.6848 20.6853C29.6918 20.6667 29.6952 20.6512 29.6952 20.6388V20.6109C29.6952 20.5613 29.6709 20.5148 29.6223 20.4714C29.5806 20.428 29.5285 20.4062 29.4659 20.4062H28.5278C28.4653 20.4062 28.4097 20.428 28.361 20.4714C28.3193 20.5148 28.2985 20.5613 28.2985 20.6109V20.6388C28.2985 20.6512 28.302 20.6667 28.3089 20.6853L28.5174 21.4481L27.7773 21.0295C27.7287 21.0109 27.7009 21.0016 27.6939 21.0016C27.6453 20.9892 27.5897 20.9954 27.5272 21.0202C27.4646 21.045 27.4264 21.0822 27.4125 21.1318L27.1102 21.9225C27.0963 21.9783 27.1033 22.0341 27.1311 22.0899C27.1658 22.1396 27.211 22.1706 27.2666 22.183C27.2735 22.183 27.2805 22.1861 27.2874 22.1923C27.3013 22.1923 27.3187 22.1954 27.3395 22.2016L28.2255 22.2667L27.548 22.769C27.5133 22.8 27.4959 22.8186 27.4959 22.8248C27.4681 22.8682 27.4577 22.9178 27.4646 22.9736C27.4716 23.0295 27.4994 23.0729 27.548 23.1039Z" fill="#FF9933"/>
</svg>
