<svg width="27" height="30" viewBox="0 0 27 30" fill="none" xmlns="http://www.w3.org/2000/svg">
<path d="M11.8657 0.976743L11.8657 0.976743C10.4959 1.23656 9.38694 1.84522 8.39739 2.87909C5.39822 6.01262 6.2747 11.2452 10.129 13.2074C12.9936 14.6658 16.4241 13.718 18.2133 10.9788L18.1406 10.9313L18.2133 10.9788C18.8601 9.98852 19.1948 8.94421 19.2531 7.73644C19.2959 6.8498 19.2074 6.14472 18.9537 5.35996C18.2683 3.24041 16.6086 1.64565 14.5086 1.09302C13.7407 0.890925 12.5885 0.83967 11.8657 0.976743ZM8.55834 9.60238L8.55834 9.60237C8.21478 8.87259 8.11147 8.45658 8.0701 7.63469C7.94897 5.23117 9.44565 3.15454 11.7585 2.51591C12.1274 2.41409 12.3329 2.39681 13.071 2.41488C13.4556 2.42428 13.6872 2.43522 13.8747 2.46144C14.0596 2.4873 14.2037 2.52832 14.4125 2.60121L14.4394 2.52416L14.4125 2.60121C16.0666 3.17858 17.2311 4.44929 17.6784 6.16668C17.8564 6.85035 17.8562 7.93645 17.678 8.61869C17.1902 10.4855 15.8459 11.8347 14.038 12.2779C13.696 12.3618 13.2322 12.3968 12.7712 12.3841C12.3098 12.3714 11.8614 12.3111 11.5494 12.2098C10.2215 11.7785 9.13737 10.8326 8.55834 9.60238ZM19.5975 16.0595L19.5976 16.0595C19.8001 15.8775 19.9519 15.7813 20.2471 15.7262C20.5536 15.669 21.0104 15.6571 21.8237 15.6571C22.7031 15.6571 23.1657 15.6667 23.4732 15.7379C23.7662 15.8058 23.916 15.9289 24.1666 16.186C24.1956 16.2158 24.2224 16.2427 24.2473 16.2678C24.3521 16.3732 24.4229 16.4444 24.4793 16.545C24.5472 16.6662 24.5955 16.8358 24.6265 17.1657C24.6829 17.7675 24.6787 18.8575 24.6701 21.0543C24.6692 21.2767 24.6683 21.5105 24.6674 21.7562L24.6507 26.3262L24.489 26.664L24.5727 26.7041L24.489 26.664C24.3994 26.8513 24.2185 27.0985 24.0945 27.2074L24.0945 27.2074C23.9884 27.3006 23.9027 27.3676 23.8079 27.4185C23.714 27.4688 23.607 27.5055 23.4575 27.5319C23.1526 27.5856 22.6864 27.5942 21.8237 27.5942C20.9373 27.5942 20.4689 27.586 20.161 27.5251C20.0106 27.4953 19.9018 27.4534 19.803 27.3947C19.7026 27.3349 19.6089 27.2558 19.4892 27.1453L19.4247 27.2152L19.4892 27.1453C19.3086 26.9787 19.1521 26.8684 18.9939 26.8259C18.8286 26.7815 18.6763 26.8147 18.515 26.8994C18.2165 27.0559 18.0758 27.4134 18.1661 27.7491C18.2021 27.8829 18.2984 28.0202 18.4223 28.1492C18.548 28.2801 18.7102 28.4108 18.8909 28.5307C19.2513 28.7697 19.6964 28.9731 20.0935 29.0483C20.2159 29.0715 20.4638 29.0863 20.7977 29.0939C21.1348 29.1017 21.5674 29.1021 22.0649 29.0947C22.8097 29.0835 23.2171 29.0753 23.4809 29.0523C23.7514 29.0287 23.8766 28.9889 24.0561 28.9169C25.0195 28.5307 25.6877 27.8153 25.9767 26.8562C26.038 26.6526 26.0681 26.4909 26.0837 25.816C26.0992 25.1416 26.1003 23.9449 26.1 21.666C26.0997 19.7771 26.0953 18.5692 26.0828 17.8023C26.0766 17.419 26.0684 17.1448 26.0576 16.9504C26.0469 16.7586 26.0335 16.6371 26.0145 16.5642L26.0145 16.5641C25.7457 15.5334 24.9644 14.6798 23.9771 14.3413C23.6078 14.2147 23.4206 14.2061 21.8103 14.2079C20.2179 14.2098 20.0106 14.2198 19.6629 14.3425C19.3384 14.457 19.0065 14.6484 18.7373 14.86C18.4716 15.0687 18.2523 15.3087 18.1725 15.5258C18.0629 15.8243 18.1798 16.1155 18.3853 16.2912C18.5909 16.4669 18.8973 16.5378 19.1772 16.3861L19.1359 16.31L19.1772 16.3861C19.2219 16.3618 19.2912 16.3118 19.3638 16.2552C19.4383 16.1971 19.522 16.1273 19.5975 16.0595ZM1.05484 20.8017L1.05483 20.8017L0.910317 21.1145L0.901102 21.1344L0.901098 21.1564L0.900549 23.9404L0.9 26.7245L0.899996 26.7464L0.909185 26.7663L1.08248 27.1423L1.08249 27.1423C1.27725 27.5646 1.57217 27.8725 2.00538 28.11L2.26282 28.2511L2.28511 28.2633L2.31053 28.2634L7.03538 28.2805C8.65741 28.2864 9.85149 28.2855 10.6537 28.2773C11.0547 28.2733 11.3585 28.2674 11.5692 28.2596C11.6744 28.2558 11.7574 28.2514 11.8181 28.2464C11.8483 28.2439 11.8742 28.2412 11.8951 28.2382C11.9127 28.2356 11.9368 28.2315 11.9567 28.223C12.0721 28.174 12.1765 28.0658 12.2505 27.9513C12.3247 27.8365 12.3807 27.6961 12.3807 27.5691C12.3807 27.4462 12.3265 27.3081 12.2556 27.1945C12.1848 27.0811 12.0849 26.9722 11.9748 26.9207L11.9748 26.9207C11.9545 26.9112 11.9303 26.9068 11.9137 26.9041C11.8937 26.9009 11.8689 26.898 11.8402 26.8954C11.7826 26.8901 11.7038 26.8853 11.6039 26.881C11.404 26.8724 11.115 26.8653 10.7324 26.8598C9.96709 26.8486 8.82406 26.8433 7.26246 26.8432C5.0542 26.8431 3.92365 26.8423 3.32044 26.8263C3.01784 26.8183 2.85339 26.8065 2.75365 26.7903C2.66076 26.7752 2.6295 26.7573 2.59107 26.7333L2.53804 26.8181L2.59107 26.7333C2.54535 26.7047 2.49562 26.6618 2.45357 26.6155C2.41122 26.5688 2.38384 26.5267 2.37336 26.4998C2.37315 26.4988 2.37237 26.4953 2.37126 26.4881C2.36958 26.4774 2.36774 26.4623 2.36583 26.4427C2.36202 26.4034 2.35829 26.3496 2.35471 26.2817C2.34758 26.1461 2.34127 25.9584 2.33603 25.7276C2.32555 25.2664 2.31943 24.636 2.31943 23.9135C2.31943 23.736 2.31925 23.5705 2.31908 23.4161C2.31856 22.9501 2.31815 22.5852 2.32324 22.2958C2.33004 21.9087 2.34667 21.6661 2.38319 21.5025C2.41832 21.3452 2.46982 21.2699 2.545 21.2101C2.5858 21.1777 2.63623 21.1478 2.70212 21.1134C2.73788 21.0947 2.772 21.0777 2.80936 21.059C2.84696 21.0403 2.88785 21.0199 2.937 20.9945C5.38799 19.7282 8.21591 18.9106 11.0091 18.6612C11.4575 18.6212 11.7353 18.5871 11.9166 18.5247C12.0103 18.4925 12.0835 18.4511 12.1429 18.3938C12.2018 18.3369 12.2415 18.2699 12.2758 18.1959L12.2758 18.1958C12.3341 18.0696 12.3712 17.9673 12.3754 17.8633C12.3797 17.7571 12.3494 17.661 12.2993 17.548L12.2105 17.5874L12.2993 17.548C12.2578 17.4548 12.1982 17.3763 12.1132 17.315C12.0292 17.2545 11.9255 17.2142 11.8007 17.1891C11.5543 17.1394 11.2058 17.1451 10.7166 17.1902C7.92235 17.4478 4.94965 18.3213 2.38716 19.6375C1.61909 20.032 1.277 20.321 1.05484 20.8017ZM17.8593 20.2619L18.47 20.9H15.9773C14.5023 20.9 13.7482 20.9006 13.3458 20.9445C13.1456 20.9664 13.0142 21.0003 12.9224 21.0633C12.8268 21.1289 12.7873 21.2179 12.7506 21.3005L12.75 21.3018C12.6818 21.4554 12.6543 21.6061 12.6753 21.7503C12.6963 21.8953 12.7651 22.0252 12.8752 22.1382L12.8752 22.1382L13.0534 22.3211L13.0829 22.3513H13.125H15.9042C16.6681 22.3513 17.3623 22.3562 17.8654 22.3642C18.117 22.3681 18.3203 22.3729 18.4604 22.3781C18.4694 22.3784 18.4781 22.3788 18.4866 22.3791C18.4576 22.4118 18.4237 22.4493 18.3856 22.491C18.2483 22.6414 18.0583 22.8433 17.8492 23.0602C17.4764 23.4467 17.2784 23.6524 17.1763 23.7967C17.1231 23.8719 17.0914 23.9361 17.075 24.0053C17.0591 24.0717 17.0589 24.1372 17.0589 24.2062C17.0589 24.3282 17.0654 24.4238 17.1008 24.5084C17.1372 24.5953 17.1992 24.6592 17.2812 24.73C17.3558 24.7944 17.4303 24.8422 17.5146 24.8732C17.5988 24.9041 17.6873 24.9163 17.7872 24.9163C17.8513 24.9163 17.9167 24.9152 17.9955 24.8825C18.0703 24.8515 18.1507 24.7949 18.2589 24.7006C18.4754 24.5122 18.8352 24.144 19.531 23.43C20.1865 22.7575 20.5444 22.3863 20.7375 22.1582C20.8339 22.0444 20.8945 21.9602 20.9302 21.8879C20.9684 21.8105 20.977 21.749 20.9764 21.6857L20.9764 21.6857C20.9757 21.6177 20.9658 21.5423 20.9508 21.4746C20.9362 21.409 20.9146 21.3411 20.8863 21.2932C20.8756 21.2751 20.854 21.2495 20.8327 21.225C20.8086 21.1972 20.776 21.1611 20.7363 21.118C20.6569 21.0317 20.5472 20.9154 20.4155 20.7777C20.1519 20.5022 19.7988 20.1398 19.4197 19.7566C19.0498 19.3829 18.7697 19.1003 18.5519 18.8907C18.3351 18.682 18.1756 18.5411 18.0478 18.454C17.9191 18.3663 17.8101 18.3242 17.6971 18.3323C17.5904 18.34 17.4955 18.3927 17.4015 18.4451C17.281 18.5122 17.1908 18.5936 17.1337 18.7099C17.078 18.8232 17.0589 18.9591 17.0589 19.125C17.0589 19.1885 17.0607 19.25 17.0795 19.3157C17.0984 19.3821 17.1324 19.4459 17.1868 19.5211C17.2926 19.6673 17.4921 19.8782 17.8593 20.2619Z" fill="#A4A4A4" stroke="#A4A4A4" stroke-width="0.2"/>
</svg>
