<svg width="32" height="24" viewBox="0 0 32 24" fill="none" xmlns="http://www.w3.org/2000/svg">
<path fill-rule="evenodd" clip-rule="evenodd" d="M13.1719 0.143002C12.8263 0.353301 12.7674 0.623695 12.7674 1.99907V3.22583H8.08454C2.92419 3.22583 2.95779 3.2232 2.0607 3.69707C1.12451 4.19156 0.27733 5.30585 0.0663818 6.32006C0.00939706 6.59398 -0.009623 8.89045 0.00443523 13.8049L0.0247333 20.8945L0.193733 21.3417C0.54158 22.2619 1.25261 23.075 2.09663 23.5175C3.09627 24.0418 2.21842 24.0123 16.2043 23.9904L28.8178 23.9706L29.298 23.7975C30.4676 23.3759 31.372 22.4883 31.8092 21.3332L31.9753 20.8945L31.9956 13.8049C32.0096 8.89045 31.9906 6.59398 31.9336 6.32006C31.7227 5.30585 30.8755 4.19156 29.9393 3.69707C29.0422 3.2232 29.0758 3.22583 23.9155 3.22583H19.2326V1.98549C19.2326 0.592109 19.1662 0.310686 18.7912 0.117193C18.5975 0.0172584 18.179 -0.000222949 15.985 2.1295e-06C13.5832 0.000227208 13.3903 0.0100561 13.1719 0.143002ZM17.5635 3.47536C17.5413 5.36107 17.5397 5.37758 17.3532 5.65232C17.2498 5.80463 17.0328 6.02153 16.8709 6.13429C16.6125 6.31443 16.5064 6.33941 16 6.33941C15.4936 6.33941 15.3875 6.31443 15.1291 6.13429C14.9672 6.02153 14.7502 5.80463 14.6468 5.65232C14.4603 5.37758 14.4587 5.36107 14.4365 3.47536L14.4141 1.57525H16H17.586L17.5635 3.47536ZM12.8046 5.08272C12.9964 6.30828 13.6184 7.20064 14.6004 7.65927C15.5419 8.09892 16.4581 8.09892 17.3996 7.65927C18.3825 7.20026 19.0032 6.30903 19.1959 5.08002L19.2405 4.79605L23.954 4.81743L28.6674 4.83889L29.0081 5.00822C29.5437 5.27457 29.8602 5.57737 30.1388 6.08995L30.3965 6.56449V13.5794V20.5944L30.2175 20.9898C29.9846 21.5039 29.3636 22.0743 28.8375 22.2574C28.46 22.3887 27.8731 22.395 16 22.395C4.12688 22.395 3.53997 22.3887 3.1625 22.2574C2.63641 22.0743 2.01536 21.5039 1.78254 20.9898L1.60347 20.5944V13.5794V6.56449L1.78961 6.18936C2.11137 5.54106 2.73391 5.03381 3.40773 4.87115C3.53177 4.84121 5.68689 4.81331 8.19693 4.80903L12.7605 4.80138L12.8046 5.08272ZM7.7933 8.1672C7.21902 8.35627 6.92552 8.54818 6.46062 9.0387C5.39874 10.1592 5.28853 11.8042 6.19081 13.0645L6.43987 13.4123L6.0794 13.6454C5.16448 14.237 4.31949 15.496 4.08426 16.618C3.82775 17.8414 4.05772 18.3811 4.83543 18.3811C5.29898 18.3811 5.47512 18.1407 5.59337 17.3467C5.72591 16.4568 5.98475 15.912 6.53791 15.3588C7.7957 14.1007 9.77017 14.1007 11.028 15.3588C11.5811 15.912 11.84 16.4568 11.9725 17.3467C12.0908 18.1407 12.2669 18.3811 12.7304 18.3811C13.5082 18.3811 13.7381 17.8414 13.4816 16.618C13.2464 15.496 12.4014 14.237 11.4865 13.6454L11.126 13.4123L11.3751 13.0645C12.079 12.0812 12.1768 10.8681 11.64 9.77989C11.3374 9.1664 10.6044 8.47788 10.0096 8.24845C9.39872 8.01287 8.3763 7.97536 7.7933 8.1672ZM9.42263 9.74297C9.7904 9.90976 10.1639 10.3201 10.2872 10.6929C10.4327 11.1332 10.3485 11.7312 10.089 12.0997C9.76468 12.5602 9.38113 12.7517 8.78294 12.7517C7.90885 12.7517 7.28938 12.2029 7.21992 11.3668C7.11768 10.1364 8.32578 9.2457 9.42263 9.74297ZM17.0467 10.6476C16.6891 11.0045 16.7671 11.6225 17.2021 11.879C17.3936 11.9919 17.8572 12.0039 22.0142 12.0039C26.1712 12.0039 26.6349 11.9919 26.8263 11.879C27.2613 11.6225 27.3394 11.0045 26.9817 10.6476L26.762 10.4283H22.0142H17.2664L17.0467 10.6476ZM17.1898 14.5332C16.7653 14.796 16.6939 15.4089 17.0467 15.761L17.2664 15.9803H22.0142H26.762L26.9817 15.761C27.3446 15.3988 27.2387 14.6983 26.7901 14.4944C26.644 14.4279 25.4028 14.4052 21.9919 14.4067C17.8392 14.4085 17.3712 14.4209 17.1898 14.5332Z" fill="#A4A4A4"/>
</svg>
