<svg width="178" height="161" viewBox="0 0 178 161" fill="none" xmlns="http://www.w3.org/2000/svg">
<g clip-path="url(#clip0_1_37804)">
<path d="M75.6279 160.911C75.2194 160.911 74.8027 160.9 74.3902 160.877C69.4113 160.575 64.4007 158.754 59.5022 155.467C58.2531 154.632 57.0069 153.732 55.8013 152.862L55.6931 152.785C53.1177 150.925 50.4861 149.028 47.7224 147.587C43.471 145.355 38.7411 144.18 33.9359 144.163C33.7115 144.163 33.4913 144.165 33.267 144.17C31.3804 144.208 29.5459 144.278 27.8397 144.717C25.3043 146.524 24.0667 148.87 24.1636 151.687C24.2077 153.14 24.5962 154.701 25.3612 156.458C26.2023 158.392 26.5427 159.218 26.4706 159.327H26.4667C26.3306 159.327 25.9701 158.892 25.2932 158.061C22.5975 154.746 15.4439 145.955 5.85973 144.08C4.7005 143.853 3.61577 143.344 2.70277 142.596C1.78978 141.849 1.07705 140.888 0.628484 139.799C0.179918 138.71 0.00953271 137.527 0.132601 136.356C0.25567 135.185 0.668346 134.063 1.33364 133.09C25.2258 98.061 28.2098 85.5471 39.3287 38.988L40.2939 34.9614C40.9988 31.9972 41.7424 28.8954 42.5246 25.6561C42.7868 24.561 43.3042 23.5428 44.0349 22.6841C44.7656 21.8254 45.6889 21.1503 46.7302 20.7136L60.2003 15.1221C61.0694 14.762 62.0013 14.5769 62.9424 14.5773C63.3166 14.5776 63.6902 14.6065 64.0599 14.6638C69.4997 12.4982 76.6251 11.4087 85.2328 11.4087H94.5614C103.189 11.4087 110.314 12.5036 115.734 14.6634C114.154 14.9108 112.702 15.6772 111.608 16.8409L71.0336 19.904H71.0297L71.0258 19.9008L68.1779 16.8409C67.0858 15.68 65.6371 14.9143 64.0603 14.6645C61.1404 15.8253 58.6649 17.3145 56.7023 19.1071C51.3951 23.9415 48.7035 32.6543 48.7035 45.0035V95.6461C48.7035 108.003 51.3951 116.719 56.7023 121.554C62.2898 126.655 71.8867 129.241 85.2328 129.241H94.5614C107.907 129.241 117.504 126.655 123.092 121.554C128.399 116.711 131.091 107.995 131.091 95.6461V45.0035C131.091 32.6623 128.399 23.9495 123.092 19.1071C121.137 17.3244 118.666 15.8292 115.734 14.6629C116.101 14.6066 116.472 14.5779 116.843 14.5771C117.784 14.5757 118.715 14.7607 119.583 15.1212L133.056 20.7127C134.097 21.1499 135.02 21.8252 135.75 22.6837C136.48 23.5423 136.997 24.5601 137.259 25.6547C139.746 35.9866 141.853 45.2084 143.387 51.9414C151.923 89.2957 155.115 103.267 176.668 134.865C177.335 135.838 177.749 136.96 177.873 138.131C177.997 139.302 177.827 140.485 177.379 141.575C176.93 142.664 176.218 143.625 175.304 144.373C174.391 145.12 173.306 145.629 172.146 145.855C162.365 147.776 155.952 156.028 153.846 158.74C153.409 159.301 153.217 159.541 153.165 159.541C153.117 159.475 153.333 158.975 153.954 157.561L154.434 156.458C155.187 154.719 155.576 153.158 155.624 151.687C155.7 149.269 154.803 147.196 152.96 145.526C149.481 144.754 146.612 144.393 143.936 144.393C143.616 144.393 143.295 144.399 142.975 144.409C137.283 144.618 133.562 146.124 131.263 149.147C130.825 149.737 130.42 150.351 130.05 150.985L129.997 151.073C129.56 151.841 129.065 152.575 128.516 153.27C127.338 154.716 125.901 155.419 124.122 155.419C121.687 155.419 119.016 154.075 116.664 152.89C115.683 152.395 114.878 151.991 114.101 151.664C110.72 150.242 107.756 149.551 105.029 149.551C104.155 149.549 103.282 149.624 102.421 149.774C98.3678 150.475 94.7148 152.864 91.182 155.175C90.3968 155.686 89.6159 156.195 88.8348 156.687C84.3316 159.529 80.0098 160.911 75.6279 160.911Z" fill="#FF9933"/>
<path d="M96.6211 151.685L97.2794 140.658L107.26 137.776L111.339 150.635C111.339 150.635 103.839 147.799 96.6211 151.685Z" fill="#DB902E"/>
<path d="M38.4572 140.098C38.4572 140.356 38.469 144.216 38.484 144.529C30.4874 143.114 23.9596 145.728 24.165 151.684H24.0956V149.981C23.7683 138.474 29.4565 128.84 32.6581 118.194C35.2845 109.4 36.4827 82.6345 38.6088 91.4768C40.45 99.1391 39.594 105.819 38.4571 114.172C37.8607 118.546 38.4571 122.677 38.4571 127.108L38.4572 140.098Z" fill="#DB902E"/>
<path d="M141.358 140.098C141.358 140.356 141.342 144.216 141.328 144.529C148.322 144.894 155.855 145.728 155.649 151.684H155.717V149.981C156.045 138.474 150.356 128.84 147.156 118.193C144.53 109.401 143.333 82.6342 141.206 91.4765C139.363 99.1388 140.219 105.819 141.358 114.172C141.953 118.546 141.358 122.677 141.358 127.108V140.098Z" fill="#DB902E"/>
<path d="M94.549 22.8194C108.678 22.8194 113.802 26.1048 115.35 27.5147C118.073 30.0009 119.635 36.3785 119.635 45.0103V95.6466C119.635 104.278 118.073 110.654 115.345 113.144C113.8 114.555 108.68 117.838 94.5492 117.838H85.2311C71.1005 117.838 65.9794 114.555 64.4264 113.137C61.7067 110.654 60.1453 104.278 60.1453 95.6466V45.011C60.1453 36.3792 61.7067 30.0014 64.4299 27.5154C65.9782 26.1047 71.1025 22.8201 85.2311 22.8201H94.549M94.549 0.00154411H85.2311C68.864 0.00154411 56.7752 3.56453 48.9647 10.6905C41.1539 17.8203 37.249 29.2609 37.25 45.0124V95.6466C37.25 111.402 41.1549 122.842 48.9647 129.968C56.769 137.095 68.8578 140.658 85.2311 140.657H94.549C110.922 140.657 123.011 137.094 130.815 129.968C138.625 122.84 142.53 111.4 142.53 95.6466V45.011C142.53 29.2557 138.625 17.8151 130.815 10.6891C123.011 3.56418 110.922 0.00118919 94.549 0.00012207V0.00154411Z" fill="#1A1A1A"/>
<path d="M89.8912 81.7777C95.3691 81.7777 99.8098 77.3517 99.8098 71.8919C99.8098 66.4321 95.3691 62.0061 89.8912 62.0061C84.4134 62.0061 79.9727 66.4321 79.9727 71.8919C79.9727 77.3517 84.4134 81.7777 89.8912 81.7777Z" fill="#1A1A1A"/>
<path d="M94.5249 97.5954H85.2532C84.9612 97.5951 84.6724 97.534 84.4055 97.4159C84.1386 97.2979 83.8993 97.1255 83.7032 96.9099C83.507 96.6943 83.3582 96.4402 83.2664 96.1639C83.1746 95.8876 83.1417 95.5952 83.17 95.3055L85.0766 75.7545C85.1271 75.2382 85.3687 74.7591 85.7543 74.4106C86.1399 74.0621 86.6418 73.8691 87.1623 73.8693H92.6164C93.1369 73.869 93.6389 74.0619 94.0245 74.4105C94.4101 74.759 94.6517 75.2381 94.7021 75.7545L96.6094 95.3055C96.6375 95.5953 96.6046 95.8877 96.5126 96.1641C96.4207 96.4404 96.2718 96.6945 96.0756 96.9101C95.8793 97.1258 95.6399 97.2981 95.3729 97.4161C95.1059 97.5341 94.817 97.5952 94.5249 97.5954Z" fill="#1A1A1A"/>
</g>
<defs>
<clipPath id="clip0_1_37804">
<rect width="178" height="161" fill="white"/>
</clipPath>
</defs>
</svg>
