<svg width="29" height="27" viewBox="0 0 29 27" fill="none" xmlns="http://www.w3.org/2000/svg">
<g id="Group 11889">
<g id="Rectangle 5353">
<rect x="0.148438" y="0.148438" width="28" height="26" rx="5" fill="white" fill-opacity="0.08"/>
<rect x="0.648438" y="0.648438" width="27" height="25" rx="4.5" stroke="url(#paint0_linear_6755_112272)" stroke-opacity="0.2"/>
</g>
<path id="image 379 (Traced)" fill-rule="evenodd" clip-rule="evenodd" d="M10.6521 7.17984C9.96599 7.32418 9.39771 7.71671 9.08089 8.26512C9.01609 8.37731 8.88813 8.65166 8.79654 8.87482C8.61039 9.32838 7.81902 11.2221 6.94849 13.2973C6.3232 14.7879 6.25561 14.9674 6.18764 15.3187C6.11461 15.6961 6.14629 16.2947 6.26036 16.6921C6.61389 17.924 7.76947 18.8817 9.17133 19.1048C9.55004 19.165 10.1363 19.1603 10.5083 19.0939C10.8936 19.0251 11.1103 18.9565 11.4805 18.7862C12.0456 18.526 12.5068 18.1542 12.8644 17.6705C13.2792 17.1093 13.4618 16.5441 13.4942 15.7203L13.5009 15.5519H14.1483H14.7957L14.8166 15.9073C14.8701 16.8204 15.1871 17.5139 15.8317 18.1277C16.2066 18.4847 16.8058 18.8317 17.3136 18.9858C17.8374 19.1448 18.5711 19.1929 19.1253 19.1048C20.4671 18.8913 21.5783 18.0114 21.9868 16.8391C22.2102 16.1978 22.2017 15.4519 21.9635 14.8047C21.9102 14.6598 21.4565 13.5616 20.9552 12.3644C20.454 11.1671 19.8813 9.79689 19.6827 9.31941C19.4841 8.84193 19.2713 8.3638 19.2099 8.25691C18.9354 7.77886 18.4617 7.42199 17.8459 7.22926C17.6332 7.16268 17.5817 7.15714 17.1697 7.15636C16.7809 7.15563 16.696 7.16331 16.5079 7.21625C15.8553 7.39985 15.3527 7.78298 15.0578 8.32169C14.823 8.75058 14.8292 8.69668 14.8173 10.4143L14.8068 11.9368H14.1483H13.4898L13.4797 10.4273C13.4698 8.96754 13.4674 8.91089 13.4063 8.71041C13.1868 7.99115 12.6057 7.45096 11.8031 7.22019C11.5448 7.14589 10.9179 7.12394 10.6521 7.17984ZM10.1758 13.7783C10.6773 13.8516 11.1524 14.0799 11.5033 14.4161C11.9272 14.8224 12.134 15.2927 12.134 15.8499C12.134 16.4592 11.884 16.9699 11.3788 17.3927C11.1038 17.6228 10.9093 17.727 10.5429 17.8401C9.96397 18.0189 9.32666 17.9785 8.77231 17.7278C8.18504 17.4624 7.78662 17.0374 7.57046 16.446C7.49723 16.2456 7.48995 16.1916 7.48995 15.8499C7.48995 15.5074 7.49711 15.4547 7.57092 15.2539C7.68265 14.9499 7.78544 14.7756 7.98899 14.545C8.50939 13.9552 9.3557 13.6585 10.1758 13.7783ZM18.8387 13.7778C19.9232 13.9318 20.7394 14.7362 20.8152 15.7256C20.8926 16.7359 20.1147 17.6659 18.9977 17.8983C18.7651 17.9468 18.6666 17.9538 18.384 17.9424C17.8871 17.9223 17.4993 17.8027 17.1265 17.5546C16.5038 17.14 16.1626 16.5442 16.1626 15.8714C16.1626 15.2462 16.403 14.7423 16.9044 14.3168C17.4239 13.8759 18.1348 13.6778 18.8387 13.7778Z" fill="white"/>
</g>
<defs>
<linearGradient id="paint0_linear_6755_112272" x1="14.1484" y1="0.148437" x2="14.1484" y2="26.1484" gradientUnits="userSpaceOnUse">
<stop stop-color="white"/>
<stop offset="1" stop-color="white"/>
</linearGradient>
</defs>
</svg>
